<?xml version="1.0" encoding="UTF-8"?>
<!DOCTYPE svg PUBLIC "-//W3C//DTD SVG 1.1//EN" "http://www.w3.org/Graphics/SVG/1.1/DTD/svg11.dtd">
<!-- Creator: CorelDRAW X6 -->
<svg xmlns="http://www.w3.org/2000/svg" xml:space="preserve" width="297mm" height="210mm" version="1.1" style="shape-rendering:geometricPrecision; text-rendering:geometricPrecision; image-rendering:optimizeQuality; fill-rule:evenodd; clip-rule:evenodd"
viewBox="0 0 29700 21000"
 xmlns:xlink="http://www.w3.org/1999/xlink">
 <defs>
  <style type="text/css">
   <![CDATA[
    .str1 {stroke:#2B2A29;stroke-width:17.64}
    .str0 {stroke:#FEFEFE;stroke-width:17.64}
    .fil3 {fill:none}
    .fil4 {fill:#2B2A29}
    .fil1 {fill:#FEFEFE}
    .fil2 {fill:#49AEC7}
    .fil0 {fill:#2B2A29;fill-rule:nonzero}
    .fil5 {fill:#FEFEFE;fill-rule:nonzero}
   ]]>
  </style>
 </defs>
 <g id="Layer_x0020_1">
  <metadata id="CorelCorpID_0Corel-Layer"/>
  <path class="fil0" d="M1035 1954c234,0 397,-171 397,-396 0,-222 -162,-396 -397,-396 -234,0 -397,173 -397,396 0,225 162,396 397,396zm0 -648c137,0 237,108 237,252 0,146 -99,252 -237,252 -137,0 -237,-106 -237,-252 0,-144 99,-252 237,-252z"/>
  <path id="1" class="fil0" d="M1716 1954c74,0 129,-41 153,-81l0 67 147 0 0 -570 -151 0 0 342c0,61 -39,107 -101,107 -51,0 -95,-39 -95,-103l0 -347 -151 0 0 329c0,121 35,255 197,255z"/>
  <path id="2" class="fil0" d="M2434 1356c-75,0 -132,40 -157,97l0 -83 -147 0 0 570 151 0 0 -249c0,-113 41,-183 154,-183l0 -153z"/>
  <path id="3" class="fil0" d="M3021 1163c-146,0 -240,88 -240,217 0,244 329,222 329,353 0,49 -34,79 -91,79 -69,0 -111,-47 -132,-97l-130 63c22,62 89,177 253,177 159,0 255,-98 255,-232 0,-237 -332,-218 -332,-345 0,-41 31,-73 83,-73 67,0 95,47 111,83l128 -58c-19,-56 -82,-167 -236,-167z"/>
  <path id="4" class="fil0" d="M3330 1657c0,171 117,298 300,298 142,0 218,-85 240,-125l-99 -75c-16,24 -61,70 -139,70 -84,0 -145,-55 -148,-131l401 0c1,-11 1,-22 1,-33 0,-186 -100,-304 -277,-304 -162,0 -279,129 -279,301zm158 -62c7,-65 52,-116 123,-116 69,0 119,46 122,116l-245 0z"/>
  <path id="5" class="fil0" d="M4275 1356c-75,0 -132,40 -157,97l0 -83 -147 0 0 570 151 0 0 -249c0,-113 41,-183 154,-183l0 -153z"/>
  <polygon id="6" class="fil0" points="4720,1940 4924,1370 4763,1370 4633,1780 4502,1370 4341,1370 4545,1940 "/>
  <path id="7" class="fil0" d="M4987 1940l151 0 0 -570 -151 0 0 570zm-13 -708c0,49 38,86 87,86 50,0 88,-37 88,-86 0,-49 -38,-86 -88,-86 -49,0 -87,37 -87,86z"/>
  <path id="8" class="fil0" d="M5538 1821c-95,0 -163,-69 -163,-166 0,-92 60,-167 157,-167 64,0 108,32 133,55l43 -127c-37,-28 -96,-61 -180,-61 -173,0 -303,128 -303,301 0,173 127,298 304,298 83,0 145,-35 178,-61l-40 -123c-25,21 -71,51 -129,51z"/>
  <path id="9" class="fil0" d="M5760 1657c0,171 117,298 300,298 142,0 218,-85 240,-125l-99 -75c-16,24 -61,70 -139,70 -84,0 -145,-55 -148,-131l401 0c1,-11 1,-22 1,-33 0,-186 -100,-304 -277,-304 -162,0 -279,129 -279,301zm158 -62c7,-65 52,-116 123,-116 69,0 119,46 122,116l-245 0z"/>
  <polygon id="10" class="fil0" points="7165,1940 7318,1940 7318,1177 7166,1177 7166,1700 6840,1177 6684,1177 6684,1940 6836,1940 6836,1421 "/>
  <path id="11" class="fil0" d="M7418 1657c0,171 117,298 300,298 142,0 218,-85 240,-125l-99 -75c-16,24 -61,70 -139,70 -84,0 -145,-55 -148,-131l401 0c1,-11 1,-22 1,-33 0,-186 -100,-304 -277,-304 -162,0 -279,129 -279,301zm158 -62c7,-65 52,-116 123,-116 69,0 119,46 122,116l-245 0z"/>
  <path id="12" class="fil0" d="M8072 1370l-61 0 0 122 60 0 0 225c0,155 60,231 196,231 41,0 64,-5 64,-5l0 -129c-12,1 -17,1 -27,1 -58,0 -84,-17 -84,-103l0 -220 107 0 0 -122 -107 0 0 -120 -148 0 0 120z"/>
  <polygon id="13" class="fil0" points="8951,1940 9119,1940 9290,1370 9127,1370 9025,1774 8917,1370 8776,1370 8667,1774 8566,1370 8403,1370 8573,1940 8741,1940 8847,1575 "/>
  <path id="14" class="fil0" d="M9325 1657c0,172 129,298 306,298 179,0 308,-125 308,-298 0,-172 -133,-301 -308,-301 -173,0 -306,128 -306,301zm151 0c0,-98 65,-168 156,-168 91,0 157,71 157,168 0,97 -67,165 -157,165 -89,0 -156,-68 -156,-165z"/>
  <path id="15" class="fil0" d="M10330 1356c-75,0 -132,40 -157,97l0 -83 -147 0 0 570 151 0 0 -249c0,-113 41,-183 154,-183l0 -153z"/>
  <polygon id="16" class="fil0" points="10418,1940 10569,1940 10569,1646 10759,1940 10936,1940 10720,1628 10921,1370 10752,1370 10569,1610 10569,1152 10418,1152 "/>
  <polygon class="fil1" points="10316,12160 10380,12150 10464,12114 10552,12103 10715,12087 10798,12001 10972,11980 11111,11876 11199,11852 11277,11718 11352,11643 11360,11555 11311,11483 11330,11448 11405,11416 11400,11480 11488,11531 11461,11627 11389,11705 11386,11801 11477,11894 11515,12015 11563,12202 11507,12207 10314,12202 "/>
  <polygon class="fil1 str0" points="9607,10712 9770,10719 9823,10667 9960,10662 10050,10616 10129,10595 10106,10674 10010,10742 9901,10756 9789,10810 9720,10784 "/>
  <polygon class="fil1 str0" points="10478,9162 10548,9330 10584,9433 10570,9600 10482,9710 10459,9691 10451,9167 "/>
  <polygon class="fil1 str0" points="17935,18484 17828,18612 17793,18777 17828,18841 17788,18896 17816,19004 17838,19116 17856,19361 17907,19310 17905,18539 "/>
  <path class="fil2" d="M10110 9418c215,18 401,1 620,36 138,22 125,82 192,111 88,38 215,-26 277,38 55,57 16,63 24,134 13,120 9,-6 111,162 64,106 87,221 220,281 173,78 96,-39 173,160 91,25 114,73 210,43 117,-36 46,-84 31,-158 43,-30 45,-20 84,-41 93,-50 52,-25 61,-96 19,-162 29,-95 90,-213 -33,-130 -66,-45 -75,-252 -8,-178 18,-153 47,-292 63,21 33,44 101,57 47,-35 108,-106 140,-125 27,117 -37,91 -10,224 137,12 149,-1 228,-66 113,139 -25,146 13,347 8,42 18,77 21,115 -102,22 -201,-86 -206,137 126,13 278,-50 305,-86 37,-74 6,-90 59,-164 373,-10 243,55 406,49l2 -148 94 -43c-1,-180 -35,-104 -111,-181 -21,-199 107,-175 258,-201l-10 -125c-21,-5 -3,-9 -63,-15 -32,-3 -22,-4 -57,1 -49,8 -317,195 -303,-165 4,-103 23,-102 105,-136 153,-62 195,-97 305,-185 103,-81 218,-100 341,-164 117,-134 186,-117 175,-239 -128,3 -62,44 -204,28 -133,-15 -98,46 -179,9 26,-53 24,-38 78,-61 -45,-85 12,-6 -61,-71 101,-121 20,-114 -52,-188 -60,-62 -58,-147 -67,-245 -177,4 -116,64 -209,74 -40,-193 86,-285 -69,-283 -145,182 -134,53 -193,4 -26,16 -54,25 -93,80 -26,36 -34,65 -49,101 -49,0 -71,-6 -99,-22 -5,-90 55,-112 32,-269 -1,-1 -165,-96 -219,-202 -27,-54 -17,-139 -26,-193 -14,-84 -40,-55 -51,-163 -158,-24 -64,15 -200,-54 -116,-59 -74,0 -183,10 -46,-97 -35,-133 -1,-226 -37,-45 45,-10 -41,-39l-3 -105c-76,2 -241,-15 -292,-52 -29,-22 -6,-6 -34,-36 -3,-3 -10,-5 -12,-14 -2,-9 -8,-10 -12,-15 -40,16 -172,30 -236,47 -4,204 -65,275 -159,386 -24,29 -36,43 -57,83 -2,4 -5,9 -7,14 -3,5 -10,22 -12,27 -36,67 1,33 -65,59 -5,2 -23,7 -29,9 -5,2 -10,3 -15,5l-108 49c-191,96 -105,221 -237,311 -133,90 -53,8 -126,153 -74,147 -228,55 -402,115 -354,121 -77,-132 -283,-167 -84,-14 -134,33 -199,77 -131,89 9,99 -146,224l-154 118c-3,3 -8,6 -11,9l-35 46c-94,156 -66,168 -52,313 99,26 79,42 131,65 76,34 97,-3 183,27 15,96 33,183 -60,222 14,191 18,156 69,234 2,4 5,9 8,12 73,111 67,82 215,56 -20,282 71,279 96,318 32,51 37,197 107,291 -61,0 -4,-6 -30,31z"/>
  <path class="fil2" d="M10881 11340l-15 27c-1,4 -5,10 -7,15l-20 87 108 59c6,104 31,148 25,221l-118 450c-50,138 9,138 26,248 13,82 -2,152 16,261 14,86 14,176 23,263 25,240 28,280 93,491 114,370 59,757 132,981 29,88 33,130 83,191 54,66 137,318 157,421 16,81 68,136 146,168l-15 -36c-78,-146 -53,16 -104,-225 -26,-125 -94,-130 -77,-259 118,83 6,105 234,91 13,75 1,73 58,121l-2 -136c-61,-51 64,-22 -76,-39 99,54 213,-115 201,-323 -55,-43 -74,6 -66,-69 12,-115 32,-40 61,-125 136,-12 -122,-11 54,8 5,1 11,2 17,2 5,0 11,2 16,2 61,-1 209,-145 264,-184 96,73 37,61 154,17 96,-36 289,53 176,-262 67,-44 54,0 155,14 40,5 155,-1 192,-12 115,-35 24,-28 108,-89 33,-25 22,-3 61,-41l146 -163c123,-109 105,19 213,-197 29,-57 85,-93 87,-94 3,2 7,4 8,8 4,18 68,37 119,97 4,4 8,11 11,15 3,4 7,11 11,16 -4,-46 -23,-91 -24,-93 -4,-28 -8,3 2,-29 40,-133 82,-138 117,-169 117,-100 -9,-232 96,-377l108 40c24,-37 21,-40 41,-76 51,-91 100,-58 47,-291 11,2 235,56 236,56 65,32 65,94 175,136 154,58 364,-83 520,26 76,106 -66,109 8,366 38,133 96,49 220,113 -17,-123 -41,-29 -24,-106 71,-336 79,-236 203,-245 131,-10 153,-137 59,-205 -76,-55 -23,21 -83,-86 -36,-64 -26,-53 -75,-90 92,-82 24,-156 24,-156 -38,-17 -48,-45 -23,0 46,-101 58,4 65,-146 8,-155 -13,-8 -24,-120 -4,-41 4,-109 -6,-154 -16,-72 -33,-45 -56,-125 39,-28 61,-40 93,-63 44,-32 52,-31 64,-100 8,-49 -2,-98 8,-144 16,-69 7,-24 26,-58l29 -44c-162,74 -23,160 -123,304l-233 -176c-220,98 -38,55 -232,33 -73,-9 -97,18 -150,4 -59,-15 -56,-55 -79,-76 -143,23 -200,87 -292,110 -185,46 -162,-1 -292,-33 -101,51 -30,68 -214,61 -97,-4 -192,10 -261,-20 30,-92 -20,-3 31,-40l24 -11c1,0 48,2 64,-3 -16,-290 -306,-94 -306,-94 -179,61 -70,-15 -160,112 -11,16 -64,68 -65,69l-47 99c-311,28 -222,86 -281,-80 -43,-120 -211,-60 -344,-67 -209,-10 -20,-80 -312,-125 -355,-54 -55,-108 -205,-247 -88,11 -62,67 -195,40 -1,-5 -1,-12 -1,-15 -3,-199 30,-227 8,-303 -2,-6 -12,-14 -13,-44l30 61c-20,97 -32,53 -31,122 0,1 7,101 6,132 -30,25 -239,167 -149,253 82,90 3,-21 226,31 -35,38 26,-1 -49,38 -17,9 -21,8 -43,15 -63,21 -45,-1 -90,43 -99,96 3,54 -167,105 63,94 117,89 114,253l-139 82c-60,-31 -53,-57 -122,-54 -30,213 1,332 -270,278 -14,-86 -30,-229 -14,-308 29,-137 -16,-54 -15,-226 -32,-25 -65,-43 -117,-60l25 -138z"/>
  <path class="fil2" d="M13790 8456c-123,64 -239,82 -341,164 -111,88 -153,122 -305,185 -83,34 -101,33 -105,136 -14,360 254,173 303,165 35,-5 25,-4 57,-1 60,6 42,9 63,15l10 125c-151,26 -278,2 -258,201 76,77 110,0 111,181l-94 43 -2 148c-162,6 -32,-59 -406,-49 -53,73 -22,90 -59,164 -27,36 -179,99 -305,86 5,-223 104,-115 206,-137 -2,-38 -13,-73 -21,-115 -38,-201 100,-208 -13,-347 -78,65 -91,78 -228,66 -27,-133 37,-107 10,-224 -33,19 -93,90 -140,125 -67,-13 -37,-36 -101,-57 -29,139 -54,115 -47,292 9,208 42,123 75,252 -61,119 -72,51 -90,213 -8,72 33,47 -61,96 -39,21 -41,11 -84,41 15,74 86,122 -31,158 -96,30 -119,-19 -210,-43 50,30 66,39 94,102 24,53 39,106 48,161 -52,44 -112,67 -183,113 2,30 12,38 13,44 22,76 -10,104 -8,303 0,4 0,10 1,15 133,27 107,-29 195,-40 150,139 -150,193 205,247 292,45 103,115 312,125 132,6 301,-53 344,67 59,167 -30,108 281,80l47 -99c1,-2 54,-54 65,-69 91,-127 -19,-51 160,-112 0,0 290,-195 306,94 -16,4 -62,2 -64,3l-24 11c-51,36 -1,-52 -31,40 69,30 164,16 261,20 184,7 113,-10 214,-61 130,32 107,79 292,33 92,-23 149,-88 292,-110 23,21 20,61 79,76 53,14 77,-12 150,-4 194,23 13,65 232,-33l233 176c100,-143 -39,-230 123,-304 27,-267 123,-226 186,-396 174,-8 249,-27 300,-185 39,-121 49,-63 121,-135 112,-111 109,-148 39,-200 -175,-130 -80,-74 -244,-70 -5,-96 17,-76 17,-124 -1,-56 -22,-39 -42,-126 139,13 62,29 153,54 59,16 129,3 192,2 169,-1 197,14 270,-109 -3,-76 -12,-23 -5,-89 24,-247 -52,-82 -16,-305 -354,-18 -206,44 -326,-106 -34,-42 -94,-71 -148,-89 -110,-36 -108,23 -139,-92l-34 35c-48,38 -54,30 -130,27 7,104 31,84 -204,107l-74 -139c-117,60 -101,146 -256,71 29,-51 45,-47 113,-73 -4,-4 -9,-8 -12,-11l-53 -50c-18,-19 -31,-38 -49,-59 -198,36 -160,45 -238,172 -83,-18 -17,-5 -53,-27 -187,-114 111,34 -59,-39 -28,54 -36,62 -103,67 -2,-57 29,-111 -2,-151 -70,38 -36,36 -78,110 -49,-9 -120,-58 -149,-82 -68,-55 -26,-78 -24,-152 -91,16 -32,14 -163,63 16,455 209,402 219,665 -235,66 -168,-53 -308,-50 -19,0 -115,115 -117,-286 0,-84 23,-90 51,-140 90,-161 -123,-235 159,-302 83,-20 97,-38 166,-191 31,-69 89,-201 84,-272 -18,-266 -231,-235 -313,-259 -162,-47 -106,20 -304,176z"/>
  <path class="fil2" d="M13203 7480c155,-3 29,90 69,283 92,-10 31,-69 209,-74 9,98 7,183 67,245 72,74 153,67 52,188 72,66 16,-13 61,71 -54,22 -52,7 -78,61 80,37 46,-24 179,-9 143,16 77,-25 204,-28 11,122 -58,105 -175,239 198,-156 142,-223 304,-176 82,24 295,-7 313,259 5,71 -53,203 -84,272 -69,153 -82,171 -166,191 -282,67 -69,141 -159,302 -28,50 -52,56 -51,140 2,401 98,286 117,286 140,-3 73,116 308,50 -10,-263 -203,-210 -219,-665 131,-49 72,-47 163,-63 -1,74 -43,97 24,152 29,23 100,73 149,82 42,-73 8,-71 78,-110 31,40 0,93 2,151 67,-6 74,-13 103,-67 171,74 -128,-75 59,39 36,22 -30,9 53,27 78,-127 40,-136 238,-172 18,20 31,40 49,59l53 50c3,2 8,7 12,11 -68,26 -83,23 -113,73 156,74 140,-12 256,-71l74 139c235,-24 211,-3 204,-107 75,4 81,11 130,-27l34 -35c31,116 29,56 139,92 55,18 114,47 148,89 120,151 -28,88 326,106 -36,223 40,57 16,305 -6,66 2,13 5,89 68,27 89,88 188,70 102,-18 69,-62 145,-127l78 23c-45,-62 -49,-36 -58,-77 53,-47 12,-55 22,-114 13,-73 31,-33 56,-99 81,45 210,16 253,-40 74,44 -4,64 136,58 9,120 38,34 97,108 92,-29 29,20 78,-47 -202,4 -56,-32 -212,-98l-29 -12c-14,-7 -30,-25 -51,-40 -106,14 -84,81 -262,51 -59,-59 -117,-148 -117,-255 1,-155 75,-157 159,-222 64,-49 127,-127 193,-175 132,-95 211,14 263,-109 -73,-118 -74,-3 -243,-171l-22 -23c22,-45 8,-18 41,-49 11,-10 23,-13 42,-29 -44,-60 -74,-47 -115,-117 42,-88 99,-56 168,-125l-116 -119c-20,-19 -21,-16 -39,-41 -165,-236 -65,-253 -5,-277 45,-18 35,-20 106,-30l45 77c97,-5 85,-25 165,18 39,145 -50,156 67,180 123,25 126,53 212,73 -71,-69 -145,-89 -246,-97 -3,-124 13,-91 -36,-189l-143 -10c-75,-52 2,-87 -127,-62 -28,6 -115,44 -146,71 -122,-57 -54,-64 -244,-54 -18,34 -16,47 -29,78 -64,-142 -68,-22 -217,-76 -172,-63 -309,-178 -455,-206 -144,-28 -153,-53 -242,-110 -173,-111 -34,-77 -173,-158 -401,-233 -658,-209 -557,-412 -31,19 -11,-5 -38,39 -26,42 1,53 -35,125 -105,-17 -12,-69 -156,-56 -159,14 -94,6 -194,-55l-297 -199 62 -76c-119,-79 -119,-24 -249,-159 -192,60 -72,59 -181,99l-131 -109c-18,-164 47,-140 78,-260 -56,-59 -77,-93 -165,-123l62 -72c2,-8 8,-9 11,-13 -144,29 -109,61 -257,-6 35,59 32,43 84,69l66 44c3,-4 9,9 13,14 -139,75 -20,43 -162,148 -69,51 -53,94 -103,187 -59,110 -29,118 -5,232 29,136 -48,65 52,202l-58 65c79,-28 57,-14 128,33l-39 172 99 42c34,194 17,216 -43,359 -304,61 -120,43 -251,91 0,-113 28,-218 -15,-295l-59 21z"/>
  <path class="fil2" d="M12515 4958l125 39c89,-97 49,-37 145,-95 72,-44 68,-103 46,-205l208 -131c41,-17 113,-24 168,-21 208,8 169,186 407,168 244,-18 149,9 223,150l210 20c3,3 18,19 22,23 87,103 12,109 111,173 -32,-71 -52,-113 -43,-188l99 -36c130,281 259,69 339,37l48 -18c88,-40 87,-124 33,-201 -89,-128 -26,-57 -45,-212 -99,-56 -109,-41 -222,-74 -40,-231 114,10 -4,-329 64,-53 178,-55 253,-68 18,-61 17,-77 28,-142 15,-84 4,-46 56,-82l168 -147c61,-58 164,-373 185,-477 -22,-123 -278,-188 -365,-242 -119,-73 -118,-37 -229,-8 -93,24 -189,-9 -290,22 -147,46 -221,202 -381,198 -147,-3 -165,-169 -404,-184 -12,-82 -17,-126 -73,-187l-147 -124c-216,-211 -339,-162 -486,-430 -136,-5 -141,18 -284,-15 -255,-58 -439,116 -533,131 -104,17 -202,-25 -350,0 -130,211 -45,148 -280,282 -70,395 141,144 292,347 220,295 95,-11 350,314 40,52 71,106 27,167 -53,74 -97,43 -138,119 -27,49 1,44 -42,88 -51,53 -19,-19 -69,67 -20,100 36,226 37,351 1,159 -33,212 3,376 42,196 63,126 210,209 105,60 111,101 283,114l25 156c111,37 124,2 224,37l63 29z"/>
  <path class="fil2" d="M11531 15223c-20,131 -10,40 43,134 143,254 36,169 114,371 5,12 15,36 18,41 20,41 17,30 21,35 38,18 38,9 63,95 48,165 36,450 113,588 58,105 141,38 244,151 100,109 -3,133 286,336 75,53 156,32 222,89 89,76 58,81 200,131 133,109 231,-66 233,-68 130,26 15,40 111,18 166,-39 113,56 201,-46 98,-115 143,-68 145,-188l-119 -35c34,-181 69,-3 44,-259 162,-68 62,-35 164,-135 194,19 157,-4 182,53 89,-29 12,6 80,-52 88,-75 131,-83 148,-213 -177,-117 -41,-111 -138,-186 -75,-58 -108,6 -123,-122l-5 -45c-154,-43 -101,-81 -228,25 -119,99 -123,-14 -227,-47 -109,-7 -11,81 -180,58 -28,-77 5,-50 -8,-131 -13,-74 -44,-56 -6,-128 106,67 23,85 214,88l60 -93c2,-3 6,-9 9,-13l-33 -13c-262,-104 -176,111 -299,-130 -110,-216 -47,-90 -18,-233 20,-98 -82,-118 73,-116 257,2 33,-179 39,-263l81 -284 192 -27c25,-124 15,-63 44,-109 36,-58 3,26 35,-64l-105 -24c23,-116 54,18 23,-216 -18,-137 18,-152 -27,-292 27,-70 81,-107 133,-142 -73,-100 -125,-55 -53,-190 9,-18 14,-27 21,-39 10,-17 24,-37 38,-57l-17 -24c-35,-56 -8,-28 0,-93 -4,-5 -8,-12 -11,-16 -3,-4 -8,-10 -11,-15 -51,-60 -115,-79 -119,-97 -1,-5 -5,-6 -8,-8 -1,1 -58,37 -87,94 -108,216 -91,88 -213,197l-146 163c-39,38 -28,16 -61,41 -84,62 7,54 -108,89 -37,11 -153,18 -192,12 -101,-13 -88,-58 -155,-14 113,314 -80,226 -176,262 -117,44 -58,56 -154,-17 -55,39 -203,184 -264,184 -5,0 -11,-1 -16,-2 -6,0 -12,-2 -17,-2 -175,-18 82,-20 -54,-8 -29,85 -49,10 -61,125 -8,75 12,26 66,69 12,208 -102,378 -201,323 139,17 14,-12 76,39l2 136c-57,-48 -46,-46 -58,-121 -227,14 -115,-7 -234,-91 -18,129 50,134 77,259 50,241 26,79 104,225l15 36z"/>
  <path class="fil2" d="M10881 11340l-25 138c52,17 85,35 117,60 -1,172 43,89 15,226 -16,78 -1,222 14,308 271,53 240,-66 270,-278 69,-4 62,23 122,54l139 -82c3,-164 -51,-159 -114,-253 170,-51 68,-8 167,-105 45,-44 27,-23 90,-43 22,-7 26,-6 43,-15 74,-39 14,1 49,-38 -223,-52 -144,58 -226,-31 -90,-85 119,-228 149,-253 1,-31 -6,-131 -6,-132 -1,-69 11,-25 31,-122l-30 -61c71,-46 130,-69 183,-113 -9,-55 -24,-108 -48,-161 -29,-63 -44,-72 -94,-102 -77,-199 0,-82 -173,-160 -133,-60 -156,-175 -220,-281 -102,-168 -98,-42 -111,-162 -8,-70 32,-77 -24,-134 -63,-64 -189,1 -277,-38 -67,-29 -54,-89 -192,-111 -219,-35 -406,-18 -620,-36 -18,68 12,87 36,141 -29,8 -28,3 -58,16 -97,43 -77,97 -213,42l-5 -73c-17,-99 29,20 -10,-36 -63,15 -68,32 -124,46 -105,27 -65,2 -145,52 -152,94 -190,-28 -280,-47 -117,-24 -211,45 -320,-10 -140,-70 -120,-8 -140,151 -118,9 -190,-19 -289,7 -13,103 26,97 -17,174 -16,30 -14,-4 -23,35 102,42 102,-15 216,-93l34 14c-43,29 -54,27 -106,48 -12,137 -7,108 37,189 37,69 21,87 72,140 158,166 382,264 614,204 360,-93 140,-129 265,-186 98,-17 78,62 230,4l-182 172c-42,17 -29,-26 -77,68 -31,61 -25,67 -70,126 -120,9 10,-12 -107,-28 -78,122 -68,40 -189,86 -126,48 -167,38 -241,67 -17,-53 12,-22 -5,-71 -24,-67 -50,-63 -84,-75 -113,205 73,313 206,456 179,195 315,456 548,601 117,73 171,62 301,34 138,-30 458,-175 581,-204 31,-125 -26,-43 58,-129 48,-49 52,-44 74,-127l-33 -51c-2,-3 -5,-9 -8,-12 -53,-74 3,-53 -100,-57 3,-3 9,-11 11,-8 2,5 10,-6 20,-17l44 -71c1,-1 22,-30 25,-33 53,-72 32,-87 77,-153 42,63 -17,24 55,65 62,-36 147,-31 212,-13 -45,68 -34,-11 -146,27l-20 109c41,21 18,21 102,17 -79,77 -58,-4 -103,156 57,46 49,17 112,42l-20 20c-23,26 -12,7 -26,32 -2,4 -5,9 -7,12l-14 59z"/>
  <path class="fil2" d="M15696 13496c-63,72 -226,57 -226,57 -15,-93 28,-142 -65,-159 20,51 30,125 27,198 -207,29 -59,160 47,225 4,2 9,5 13,7 46,27 53,27 80,60 -81,59 -117,50 -199,100 -138,84 -71,32 -240,26 -50,91 -57,30 -64,133 66,38 86,13 103,72 -186,-17 -63,-205 -297,-117l-14 156c-201,23 -42,-33 -319,61 -14,5 -33,11 -45,16 -29,12 -30,13 -49,22l-53 174c-195,2 -158,78 -240,96 -107,23 -178,-54 -282,45 -109,104 -24,75 -237,57 -115,-10 -125,-47 -160,-159 62,-92 60,-18 81,-157l-101 -18c82,-92 28,-20 17,-234 -6,-123 40,-200 -56,-253 45,140 8,155 27,292 31,234 -1,100 -23,216l105 24c-32,90 1,7 -35,64 -28,46 -19,-16 -44,109l-192 27 -81 284c-6,84 218,265 -39,263 -155,-1 -53,19 -73,116 -29,143 -92,17 18,233 123,241 37,27 299,130l33 13c-3,5 -7,10 -9,13l-60 93c-191,-3 -108,-21 -214,-88 -37,72 -6,54 6,128 14,81 -20,53 8,131 169,23 71,-66 180,-58 104,33 108,146 227,47 128,-106 74,-68 228,-25l5 45c15,128 48,64 123,122 97,75 -39,69 138,186 -17,130 -60,138 -148,213 -68,58 9,23 -80,52 29,100 151,198 239,45 43,-75 55,-187 147,-196 105,-10 108,68 260,-8 46,-23 63,-23 106,-37 22,-60 5,-57 39,-97 0,0 -100,6 59,30 53,8 78,0 124,-13 125,-34 95,-26 148,-116 159,65 117,140 132,225 34,-36 42,-70 34,-125 -7,-48 -32,-74 -46,-119 -26,-87 3,-156 -33,-258 -89,-252 23,-299 -58,-506 -121,-307 36,-301 101,-456 126,-305 300,-100 358,-114 111,-72 46,-87 122,-179 16,-20 48,-47 65,-72 105,-147 -20,-75 254,-116 75,-11 89,-35 170,-59 155,-45 177,-106 222,-264 -37,-54 9,1 -31,-23 -124,-72 44,73 -34,-16 34,-95 65,-117 152,-168 35,-20 83,-40 116,-59l292 -218c37,-52 30,-69 66,-107 22,-24 66,-53 98,-78 57,-46 120,-91 203,-125 143,-59 86,-81 167,-188 41,-54 97,-116 150,-180 47,-57 44,-30 84,-90 21,-32 35,-76 62,-117 -145,17 -224,95 -271,238l-212 9 -185 -188c-63,40 -46,39 -142,51 29,87 32,47 0,138 -51,13 -95,-24 -144,45 -30,43 -41,119 -55,181 -104,-5 -51,-42 -107,-6 -25,16 4,35 -126,53l-52 -112c-55,-5 -66,10 -103,27 -18,79 10,96 -1,190 -1,5 -4,20 -4,18 -1,-3 -3,12 -5,18 -95,21 -44,-17 -117,20l-113 44c-93,29 -98,60 -228,83 -30,-23 -34,40 -20,-41z"/>
  <path class="fil2" d="M15696 13496c-14,81 -10,18 20,41 130,-23 135,-55 228,-83l113 -44c73,-38 21,1 117,-20 2,-6 5,-20 5,-18 1,3 4,-13 4,-18 11,-94 -17,-111 1,-190 37,-18 48,-32 103,-27l52 112c130,-18 101,-37 126,-53 56,-36 2,1 107,6 15,-62 25,-138 55,-181 49,-69 93,-32 144,-45 32,-91 29,-51 0,-138 97,-12 80,-12 142,-51l185 188 212 -9c47,-143 126,-221 271,-238 60,-68 122,-108 179,-167 147,-154 388,-215 597,-295 178,-68 69,-92 188,-185 51,-40 71,-27 97,-79 38,-80 -21,-42 18,-122 38,-78 150,-40 87,-225 -53,-155 -160,-122 -2,-291l40 -55c21,-38 -21,-34 72,-56 55,-13 60,-2 118,-26 -10,-102 9,-66 -88,-144 -86,-70 -20,-50 -152,-30 -95,-156 10,-58 -156,-150 -17,-9 -28,-20 -56,-34l-347 -151c-39,108 42,161 -40,327 -190,-19 102,-4 -232,-65 -181,-33 -57,85 -233,19 -18,-55 4,-113 -6,-173 -170,-70 -295,19 -474,3l-104 -66c28,-62 -13,-21 48,-74l-63 53c34,41 27,40 24,109 -289,180 -270,109 -242,318 -64,28 -112,89 -127,175 -48,270 -95,226 -349,239 -45,53 -83,135 -124,174 -65,62 -86,60 -72,193 31,305 25,274 143,312 110,35 61,-20 76,77 -30,18 -12,12 -58,12 -155,1 -164,-51 -178,-63l-176 -109c-141,166 199,381 117,732 -27,116 -41,66 -103,152 -42,59 -55,92 -109,144 -93,90 -147,158 -197,291z"/>
  <path class="fil2" d="M13815 16532c-25,-57 13,-34 -182,-53 -102,100 -1,67 -164,135 25,256 -10,79 -44,259l119 35c-1,120 -46,73 -145,188 -88,103 -34,8 -201,46 -97,22 19,8 -111,-18 -2,2 -100,177 -233,68 -78,1 -118,28 -174,77 84,110 185,39 144,184 108,2 99,1 157,55 -18,84 -24,20 -64,126 236,71 7,150 119,402 121,-3 139,-72 197,-18 50,45 28,3 17,110l-23 291c174,91 96,75 31,251 -100,268 -35,55 -26,217 3,66 -14,48 -8,130 11,144 -39,113 -42,256 110,78 66,91 266,119 37,-94 134,-114 227,-172 126,-79 65,-164 112,-319 45,-150 114,-113 256,-168 207,-80 147,-33 340,-52 -60,-104 -94,-17 -122,-133 -18,-74 25,-131 61,-180 193,-265 76,-149 167,-317 62,-12 93,-18 157,-10 32,4 121,32 143,11 29,-61 27,-436 18,-531 -9,-95 -71,-368 -68,-494 97,-49 171,-144 231,-272 27,-58 53,-123 57,-190 8,-134 36,-141 41,-202 -14,-85 28,-160 -132,-225 -53,90 -24,82 -148,116 -47,13 -71,21 -124,13 -159,-23 -59,-30 -59,-30 -34,41 -17,37 -39,97 -44,14 -60,14 -106,37 -152,77 -155,-2 -260,8 -92,9 -104,121 -147,196 -89,153 -211,55 -239,-45z"/>
  <path class="fil2" d="M16356 9927c-74,123 -101,108 -270,109 -62,0 -132,14 -192,-2 -90,-25 -14,-41 -153,-54 21,87 42,70 42,126 0,49 -21,29 -17,124 164,-4 68,-60 244,70 70,52 73,88 -39,200 -72,72 -82,14 -121,135 -51,158 -126,177 -300,185 -63,170 -159,129 -186,396l-29 44c-19,34 -10,-11 -26,58 -11,47 0,96 -8,144 -12,69 -20,68 -64,100 -32,23 -54,35 -93,63 23,80 40,53 56,125 10,44 2,112 6,154 11,113 32,-35 24,120 -8,150 -20,45 -65,146 -26,-45 -15,-17 23,0 0,0 68,74 -24,156 49,37 39,26 75,90 61,107 7,32 83,86 95,68 72,195 -59,205 -124,9 -132,-91 -203,245 -17,78 7,-17 24,106 13,17 -7,4 27,22 27,14 7,3 39,16 117,47 160,79 174,241 67,37 30,-15 78,55 93,17 50,66 65,159 0,0 164,15 226,-57 50,-133 104,-201 197,-291 54,-52 67,-85 109,-144 62,-87 76,-37 103,-152 82,-350 -258,-566 -117,-732l176 109c14,12 23,64 178,63 46,0 28,6 58,-12 -15,-97 33,-41 -76,-77 -118,-38 -111,-7 -143,-312 -14,-133 7,-130 72,-193 41,-39 79,-122 124,-174 253,-13 301,31 349,-239 15,-86 64,-147 127,-175 -28,-209 -47,-138 242,-318 3,-69 11,-67 -24,-109l63 -53c51,-42 85,-66 117,-133 -49,-87 -104,-58 -143,-149 -28,-65 -11,-66 -27,-130 -3,-13 -31,-90 -36,-96 -56,-77 -15,47 -147,-146 -35,-51 -117,-81 -131,-142l-78 -23c-76,65 -43,109 -145,127 -99,18 -120,-43 -188,-70z"/>
  <path class="fil2" d="M13539 13358c-8,65 -35,36 0,93l17 24c-14,20 -28,41 -38,57 -7,12 -12,21 -21,39 -72,135 -20,90 53,190 -52,35 -106,72 -133,142 96,53 49,130 56,253 11,214 65,142 -17,234l101 18c-21,139 -20,65 -81,157 35,112 44,150 160,159 212,18 128,47 237,-57 103,-99 175,-22 282,-45 83,-18 45,-94 240,-96l53 -174c19,-9 20,-9 49,-22 13,-5 32,-11 45,-16 277,-94 118,-38 319,-61l14 -156c235,-88 111,100 297,117 -17,-59 -37,-34 -103,-72 7,-103 15,-42 64,-133 169,7 102,58 240,-26 82,-50 117,-41 199,-100 -27,-33 -34,-33 -80,-60 -4,-2 -9,-5 -13,-7 -106,-65 -254,-196 -47,-225 3,-73 -7,-147 -27,-198 -48,-70 -11,-18 -78,-55 -14,-162 -57,-194 -174,-241 -32,-13 -12,-2 -39,-16 -33,-18 -13,-5 -27,-22 -125,-64 -182,20 -220,-113 -74,-257 67,-260 -8,-366 -156,-109 -366,32 -520,-26 -110,-42 -110,-104 -175,-136 -1,0 -225,-54 -236,-56 53,233 4,200 -47,291 -20,36 -17,40 -41,76l-108 -40c-105,145 20,277 -96,377 -35,30 -77,35 -117,169 -10,32 -6,2 -2,29 0,2 20,47 24,93z"/>
  <path class="fil2" d="M17351 9682l115 -75c7,5 13,5 16,12l50 34c19,9 6,20 68,14 69,-7 63,-38 133,-76 171,-92 147,-8 239,-183 237,18 172,40 222,91 25,25 124,128 170,133l39 -110c101,-18 191,-44 270,-56 27,-157 55,-295 173,-359 73,-40 42,-22 102,-69l84 36c21,89 -9,2 39,45 -5,-151 -55,-156 82,-228 -20,-193 -90,-105 -114,-264l124 -117c10,-7 75,-18 65,-115 -5,-55 38,17 -27,-70 -97,22 -39,-1 -78,78 -98,-38 -51,-93 -163,-18 -15,10 -15,16 -52,34 -66,-31 -4,7 -29,-38 -54,-23 -93,-4 -113,1 -83,21 -6,27 -88,-14 -160,-80 -120,15 -255,4 -67,-6 -154,-61 -222,-74 -130,-25 -155,29 -272,14l-27 -136c-171,-40 -105,91 -302,12 -86,-20 -89,-48 -212,-73 -117,-24 -28,-34 -67,-180 -80,-43 -68,-23 -165,-18l-45 -77c-71,10 -61,12 -106,30 -59,24 -160,41 5,277 18,25 18,21 39,41l116 119c-69,69 -126,37 -168,125 42,70 71,57 115,117 -19,16 -31,19 -42,29 -33,30 -19,3 -41,49l22 23c169,168 171,53 243,171 -52,123 -131,14 -263,109 -67,48 -130,126 -193,175 -84,65 -158,67 -159,222 0,107 58,196 117,255 179,30 156,-37 262,-51 21,15 37,32 51,40l29 12c156,66 10,102 212,98z"/>
  <path class="fil2" d="M18879 8383c25,44 -37,7 29,38 37,-18 36,-24 52,-34 112,-75 65,-20 163,18 39,-78 -19,-56 78,-78 65,88 21,15 27,70 10,97 -56,108 -65,115l-124 117c24,159 94,71 114,264 -136,72 -86,77 -82,228 -48,-43 -19,45 -39,-45 15,103 37,68 53,141 17,79 -10,99 1,160 41,228 -94,327 -248,466 -162,147 -115,65 -233,61 -95,156 20,59 -158,135 -116,50 -65,91 -161,136 -63,-31 -32,-60 -86,-71 -67,-14 -175,171 -139,233l114 56c49,25 -4,-4 36,23 99,68 70,33 198,35l-4 140c164,55 349,307 117,278 27,13 39,24 56,34 165,92 61,-6 156,150 132,-20 66,-40 152,30 97,79 79,42 88,144 -58,24 -63,13 -118,26 -94,23 -52,19 -72,56 95,-90 286,-15 433,-193 55,-67 132,-157 150,-221 -77,256 79,265 176,139 40,-52 35,-65 67,-107 62,47 1,31 78,65 47,21 94,12 127,4 61,-135 -12,-116 -43,-360 -9,-71 -37,-128 -45,-197 -12,-101 16,-125 18,-206l-127 -31c34,-254 -153,-147 -111,-278 27,-81 79,-15 85,-124 0,-1 -28,-208 -29,-210 -129,-62 -277,40 -353,-202 46,-90 37,15 58,-117 50,28 46,58 106,-20 34,-45 37,-118 51,-129 111,-48 184,37 242,-84 2,-44 -47,-39 -78,-100 0,0 -14,-49 -18,-60l-159 16c-21,-88 -75,-165 -151,-176 -26,-4 -28,12 -59,9 5,-175 9,-129 96,-235l93 -95c-23,-66 -4,-49 -64,-76 63,17 3,-7 56,30 109,74 24,92 129,175 63,-54 88,-112 117,-172 86,44 60,278 274,231 85,-19 74,-36 73,-118l50 23c-4,-35 28,-182 44,-270 35,-197 124,17 171,-149 -150,143 -416,-20 -416,-20 -139,37 -48,72 -178,-2 -73,-42 -45,-10 -79,-60 -50,-73 34,-46 -70,-73l33 -88c19,-22 -28,-59 -26,-108 1,-20 37,-115 44,-169 15,-126 -80,-198 -194,-178 -84,45 -33,58 -108,87 -49,19 -79,-3 -136,26 42,189 53,10 -6,232 -7,27 -34,272 -33,279 24,62 222,80 41,387 -61,-43 -27,-71 -113,-40 -85,30 12,71 -116,41z"/>
  <path class="fil2" d="M21158 7933c0,0 0,41 63,41 21,0 61,-19 82,-28 63,-27 107,-41 165,-70 153,-78 154,46 350,-2 132,-32 278,-15 325,-133 41,-104 11,-75 87,-152 56,-56 80,-66 70,-158 125,41 215,-38 325,-92l186 -106c109,-46 66,27 174,-58 78,-61 60,-22 192,-57 -32,101 -27,34 -63,110 -38,81 55,217 58,220 45,40 -38,-14 30,4 61,16 16,-36 49,36 -48,45 -46,26 -115,58 -86,40 -36,53 -142,18 -45,116 2,39 -88,101 -48,33 -74,64 -105,106 57,-25 34,-24 45,51 8,52 11,81 11,133 187,-74 132,-72 351,-280 43,-41 113,-122 162,-148 27,-14 214,-70 247,-71 79,56 87,130 198,83 17,-98 -28,-111 -91,-157 -15,-254 198,-230 182,-457 0,-4 0,-10 -1,-14l-5 -27c-23,-108 -227,-60 -282,-63 -79,-5 -71,-43 -138,-40 -96,3 -24,46 -125,49 -8,-172 196,-123 34,-326 -42,-52 -5,-27 -64,-68 -75,24 -52,31 -98,69 -9,-78 20,-56 55,-151 -75,-76 -46,-25 -83,-123 -162,4 -331,157 -417,286 -96,-48 -223,-83 -341,-99 -160,-22 -197,87 -256,179 -282,439 -366,20 -468,446 -314,88 -194,248 -325,316 -91,47 -90,6 -168,3 -52,43 -72,60 -136,102 -58,-50 -38,-58 -136,-67 -140,262 67,233 199,224 50,111 34,42 31,160 -5,177 65,11 34,183l-58 -25z"/>
  <path class="fil2" d="M21158 7933c-5,-3 -14,-10 -17,-4 -3,6 -27,-4 -32,-3 -72,11 -44,34 -97,56 -24,10 -36,7 -62,10l-132 16c-93,-5 -3,-32 -122,5 -70,22 -181,62 -256,34 -57,-21 -140,-117 -201,22 -47,166 -136,-49 -171,149 -16,89 -48,235 -44,270 17,49 31,46 39,72 24,86 0,28 2,109 3,122 47,64 31,212 42,-38 0,19 47,-50 91,-131 -42,-19 33,-158 35,-64 109,-120 200,-116 136,6 -34,24 86,37 2,0 102,-13 139,-12 166,3 180,62 214,92 40,-36 -4,-25 88,-76 73,-41 53,-12 79,-110 148,19 59,1 150,-26 18,-5 147,-14 185,-18l-12 194 159 -20c38,74 3,29 50,67 23,19 10,1 32,22l14 18c1,2 3,8 5,10 34,65 73,120 60,165 -75,111 -152,105 -285,82 26,22 0,8 47,28 28,12 46,13 63,21 44,19 32,7 55,64 -53,20 -118,-81 -98,126l40 226c26,140 11,-23 127,107 3,3 7,10 12,14 29,-108 3,-28 46,-65 9,-46 18,-25 58,-98l14 -27c2,-3 4,-9 7,-14l20 42c254,-45 25,-128 155,-313 79,-113 34,-3 69,-167 21,-100 60,-87 67,-181 -59,-93 -37,-124 32,-202 79,-91 94,-76 173,-45 129,-144 7,-70 27,-288l122 -139c61,-31 -5,52 67,-35 21,-25 16,-35 51,-68 55,-52 100,-49 159,-113 58,-62 61,-83 151,-85 31,-42 57,-73 105,-106 90,-62 43,15 88,-101 106,35 56,22 142,-18 68,-32 67,-13 115,-58 -32,-71 12,-20 -49,-36 -68,-18 15,36 -30,-4 -4,-3 -96,-139 -58,-220 36,-76 31,-8 63,-110 -133,35 -114,-4 -192,57 -107,84 -64,12 -174,58l-186 106c-110,54 -200,134 -325,92 10,92 -15,102 -70,158 -77,77 -46,48 -87,152 -47,118 -193,100 -325,133 -196,48 -197,-76 -350,2 -58,29 -102,44 -165,70 -21,9 -62,28 -82,28 -63,0 -63,-41 -63,-41z"/>
  <path class="fil2" d="M17351 9682c-48,67 14,18 -78,47 -59,-74 -88,12 -97,-108 -140,6 -62,-14 -136,-58 -43,56 -172,86 -253,40 -25,66 -44,26 -56,99 -10,59 31,67 -22,114 10,41 13,15 58,77 14,61 96,91 131,142 133,193 92,69 147,146 5,6 33,83 36,96 16,65 -1,66 27,130 39,91 94,62 143,149 -32,67 -65,91 -117,133 -62,54 -20,12 -48,74l104 66c179,16 304,-73 474,-3 10,60 -13,118 6,173 176,66 53,-52 233,-19 333,62 42,47 232,65 83,-166 1,-220 40,-327l347 151c232,29 47,-223 -117,-278l4 -140c-128,-2 -99,33 -198,-35 -39,-27 13,2 -36,-23l-114 -56c-35,-62 72,-247 139,-233 53,11 22,40 86,71 97,-45 46,-86 161,-136 178,-76 63,21 158,-135 118,4 71,86 233,-61 153,-139 289,-238 248,-466 -11,-61 17,-81 -1,-160 -16,-72 -38,-38 -53,-141l-84 -36c-60,47 -29,30 -102,69 -118,64 -145,201 -173,359 -80,13 -169,38 -270,56l-39 110c-46,-6 -145,-108 -170,-133 -50,-50 16,-72 -222,-91 -93,175 -68,91 -239,183 -70,38 -64,68 -133,76 -62,7 -49,-4 -68,-14l-50 -34c-2,-7 -9,-7 -16,-12l-115 75z"/>
  <path class="fil2" d="M14321 5592c43,72 50,48 65,149 -192,44 -81,-24 -203,-81 -39,-18 -329,34 -367,95 -4,6 -17,44 -21,54 -2,4 -4,10 -6,14 -102,222 -4,154 -36,281 -4,5 -9,5 -11,13l-62 72c89,30 110,64 165,123 -31,120 -96,97 -78,260l131 109c109,-40 -12,-40 181,-99 130,135 130,80 249,159l-62 76 297 199c100,62 35,69 194,55 144,-12 51,39 156,56 36,-71 9,-83 35,-125 27,-44 7,-20 38,-39l17 -25c59,-128 -6,-122 63,-206 116,-140 52,-161 104,-227 19,-25 211,-124 177,-285 -33,-157 -141,-84 -271,-226 -75,-83 -179,-173 -299,-196 -134,-26 -166,-18 -270,-229 -104,-4 -120,27 -188,19z"/>
  <path class="fil2" d="M12515 4958c49,67 38,64 14,149 -72,22 -388,23 -410,238 -8,82 28,53 60,150 -3,4 -8,5 -10,12 -5,24 -102,64 -19,216 -199,69 -121,86 -230,221 -100,123 -178,66 -103,274 -18,10 -27,12 -45,25l-44 42c5,4 10,6 12,15 2,9 9,11 12,14 28,30 5,14 34,36 51,38 216,54 292,52l3 105c-20,-72 -28,-59 33,-98 120,-78 202,32 202,32l86 35c4,1 11,3 16,6 19,83 -15,73 39,129 65,-18 52,-27 74,-93 133,4 89,10 202,-18 98,-24 88,34 167,-25 61,-46 32,-89 77,-138 61,-66 104,-19 173,-19 43,-59 11,-20 36,-79 14,-33 33,-66 45,-92 28,-10 -33,-10 48,-7 9,0 40,7 55,11l-56 -254c10,6 62,20 83,26l-81 -79c-210,-142 -65,-70 -118,-192 -41,-96 -69,-70 -147,-109 -139,-69 -69,-308 -259,-397 9,-91 38,-110 58,-161 27,-69 75,-190 53,-242 -31,-71 23,2 -37,-45 22,102 26,161 -46,205 -96,59 -55,-2 -145,95l-125 -39z"/>
  <path class="fil2" d="M12830 4696c60,47 6,-26 37,45 23,51 -26,173 -53,242 -20,52 -49,70 -58,161 190,89 121,327 259,397 79,39 106,13 147,109 53,122 -93,50 118,192l81 79c45,40 45,22 78,77 34,57 10,70 58,100 149,67 113,35 257,6 32,-128 -65,-60 36,-281 2,-4 4,-10 6,-14 4,-10 18,-48 21,-54 38,-61 328,-113 367,-95 122,57 10,125 203,81 -15,-101 -22,-77 -65,-149l-60 -292c-9,-162 -45,-125 -84,-221 -99,-64 -25,-70 -111,-173 -4,-5 -19,-20 -22,-23l-210 -20c-74,-140 22,-168 -223,-150 -238,18 -199,-160 -407,-168 -55,-2 -127,5 -168,21l-208 131z"/>
  <path class="fil2" d="M12081 6507c86,28 3,-7 41,39 -35,93 -46,129 1,226 109,-9 67,-69 183,-10 136,69 42,30 200,54 11,108 37,79 51,163 9,53 -1,139 26,193 54,106 218,201 219,202 22,157 -37,179 -32,269 29,16 51,22 99,22 15,-36 22,-64 49,-101 39,-54 67,-64 93,-80 59,49 48,178 193,-4l59 -21c43,77 16,182 15,295 131,-48 -53,-31 251,-91 60,-144 76,-165 43,-359l-99 -42 39 -172c-71,-47 -48,-61 -128,-33l58 -65c-101,-138 -23,-67 -52,-202 -25,-113 -55,-122 5,-232 50,-93 34,-136 103,-187 142,-104 23,-73 162,-148 -4,-5 -10,-18 -13,-14l-66 -44c-52,-26 -49,-11 -84,-69 -48,-30 -24,-43 -58,-100 -33,-55 -33,-37 -78,-77 -21,-6 -73,-20 -83,-26l56 254c-15,-3 -46,-10 -55,-11 -81,-3 -19,-3 -48,7 -12,25 -31,59 -45,92 -25,59 7,20 -36,79 -69,0 -112,-47 -173,19 -45,49 -16,92 -77,138 -79,59 -69,1 -167,25 -113,28 -69,22 -202,18 -22,66 -9,75 -74,93 -54,-56 -20,-45 -39,-129 -5,-3 -12,-5 -16,-6l-86 -35c0,0 -82,-110 -202,-32 -60,39 -53,26 -33,98z"/>
  <path class="fil2" d="M13182 19273c4,-143 53,-112 42,-256 -6,-82 11,-64 8,-130 -8,-162 -74,51 26,-217 66,-176 143,-160 -31,-251l23 -291c11,-107 33,-65 -17,-110 -58,-54 -76,16 -197,18 -113,-253 116,-331 -119,-402 40,-106 46,-42 64,-126 -58,-54 -49,-53 -157,-55 41,-145 -59,-75 -144,-184 56,-49 95,-76 174,-77 -143,-50 -111,-55 -200,-131 -66,-57 -147,-36 -222,-89 -289,-203 -187,-227 -286,-336 -103,-112 -186,-46 -244,-151 -77,-139 -65,-423 -113,-588 -25,-85 -25,-76 -63,-95 114,190 38,779 425,1254 295,362 250,564 425,956 98,220 47,306 106,514 72,254 212,523 398,679l103 67z"/>
  <path class="fil2" d="M22022 8746c-8,94 -46,81 -67,181 -35,165 10,55 -69,167 -129,185 100,268 -155,313l37 13c4,1 12,4 16,5l45 2c0,184 -23,158 175,175 118,233 29,300 35,519 23,-23 15,-3 40,-54 85,-173 -16,-428 -30,-502 93,19 17,24 95,36 64,10 36,-15 115,3 98,21 182,76 257,-19 54,-77 8,-98 37,-197 22,-75 205,-437 178,-525 -104,-131 -102,-127 25,-225 -177,26 -33,81 -206,-28 -148,65 -165,36 -332,43l-74 178 -114 -51c-11,-45 12,16 -6,-33z"/>
  <path class="fil2" d="M20096 8880l13 103c71,10 279,65 315,63 52,-2 102,-34 146,-40 79,-12 90,15 161,2 80,-14 45,-37 160,-25 65,7 86,23 159,26 167,8 177,-77 292,-27 133,23 211,29 285,-82 13,-45 -25,-100 -60,-165 -1,-2 -3,-8 -5,-10l-14 -18c-21,-21 -8,-3 -32,-22 -47,-38 -12,6 -50,-67l-159 20 12 -194c-39,4 -167,13 -185,18 -92,26 -2,45 -150,26 -25,98 -6,69 -79,110 -92,52 -47,40 -88,76 -35,-30 -49,-89 -214,-92 -37,-1 -137,12 -139,12 -120,-13 50,-31 -86,-37 -91,-4 -166,52 -200,116 -75,139 58,27 -33,158 -47,68 -5,12 -47,50z"/>
  <path class="fil2" d="M21633 9504l-19 97c-85,-21 -68,11 -97,-65 -4,110 -14,186 5,281l18 184c4,151 12,222 93,377 65,125 76,273 107,417 131,-27 16,-38 108,-33l114 41c185,-277 37,-175 23,-503 -5,-133 45,-98 54,-180 -6,-219 83,-286 -35,-519 -198,-17 -175,9 -175,-175l-45 -2c-4,-1 -12,-4 -16,-5l-37 -13 -20 -42c-3,4 -5,11 -7,14l-14 27c-39,73 -48,53 -58,98z"/>
  <path class="fil2" d="M22022 8746c19,49 -5,-12 6,33l114 51 74 -178c167,-8 184,21 332,-43 173,109 29,53 206,28 27,-6 71,-7 103,-113 27,-89 -10,-23 42,-197 21,-71 1,-131 -18,-200 -15,-55 -16,-115 -21,-171 0,-52 -3,-81 -11,-133 -11,-75 12,-76 -45,-51 -90,2 -93,23 -151,85 -59,63 -104,60 -159,113 -34,33 -29,43 -51,68 -71,86 -6,4 -67,35l-122 139c-19,218 102,145 -27,288 -79,-31 -94,-46 -173,45 -69,78 -91,109 -32,202z"/>
  <path class="fil2" d="M21540 10001l-18 -184c-19,-95 -10,-171 -5,-281 29,76 12,44 97,65l19 -97c-43,36 -17,-44 -46,65 -5,-4 -9,-11 -12,-14 -116,-130 -101,33 -127,-107l-40 -226c-18,71 19,118 -44,171 -3,3 -8,6 -12,8 -62,41 -48,-26 -120,113 -30,59 -9,-18 -82,34 -64,46 20,16 -88,60 -61,25 -111,49 -158,161 -42,101 -25,168 19,251 50,95 51,137 86,225 49,-36 31,-9 47,-84 0,0 23,28 24,30 32,52 27,98 67,115 133,7 134,-81 141,-198 9,-153 -4,-24 37,-115 30,-68 4,-65 16,-114 56,-25 77,-28 150,-33l50 156z"/>
  <circle class="fil3 str0" cx="13298" cy="6501" r="134"/>
  <path class="fil2" d="M19528 7825c-37,-5 -28,1 -56,-15 -51,-202 112,-284 0,-368 -58,-44 -127,-32 -78,-36 -111,40 -33,106 -234,93 -24,139 87,-132 -19,231 -30,101 -9,150 39,217 289,24 240,-103 348,-122z"/>
  <rect class="fil4" x="15291" y="5200" width="3013" height="695" rx="347" ry="347"/>
  <path class="fil5" d="M16105 5329l159 0c36,0 63,3 82,8 25,7 47,21 65,40 18,19 32,42 41,70 9,27 14,61 14,102 0,35 -4,66 -13,92 -11,31 -26,57 -46,76 -15,15 -35,26 -61,34 -19,6 -45,9 -77,9l-163 0 0 -430zm87 73l0 285 65 0c24,0 42,-1 52,-4 14,-4 26,-10 35,-18 9,-8 17,-22 23,-41 6,-19 9,-46 9,-79 0,-33 -3,-59 -9,-77 -6,-18 -14,-32 -25,-42 -11,-10 -24,-17 -40,-20 -12,-3 -36,-4 -71,-4l-39 0z"/>
  <path id="1" class="fil5" d="M16719 5661l82 14c-11,30 -27,53 -50,69 -23,16 -51,24 -86,24 -54,0 -94,-18 -120,-53 -21,-28 -31,-64 -31,-108 0,-52 14,-92 40,-122 27,-29 61,-44 102,-44 46,0 83,15 110,46 27,31 40,78 38,141l-206 0c1,24 7,43 20,57 13,14 28,20 47,20 13,0 24,-4 32,-11 9,-7 15,-18 20,-34zm5 -84c-1,-24 -7,-42 -18,-55 -12,-13 -26,-19 -43,-19 -18,0 -33,7 -44,20 -12,13 -17,31 -17,54l123 0z"/>
  <polygon id="2" class="fil5" points="16873,5760 16873,5329 16955,5329 16955,5760 "/>
  <path id="3" class="fil5" d="M17121 5329l0 160c27,-32 59,-48 96,-48 19,0 36,4 52,11 15,7 27,16 35,27 8,11 13,23 16,36 3,13 4,34 4,62l0 183 -82 0 0 -165c0,-33 -2,-53 -5,-62 -3,-9 -9,-16 -17,-21 -8,-5 -18,-8 -30,-8 -14,0 -26,3 -37,10 -11,7 -19,17 -24,30 -5,13 -8,33 -8,59l0 156 -82 0 0 -430 82 0z"/>
  <path id="4" class="fil5" d="M17407 5406l0 -76 82 0 0 76 -82 0zm0 354l0 -312 82 0 0 312 -82 0z"/>
  <circle class="fil1 str0" cx="13298" cy="6501" r="79"/>
  <polyline class="fil3 str1" points="13298,6367 13298,5619 15218,5619 "/>
  <circle class="fil3 str0" cx="16268" cy="8128" r="134"/>
  <rect class="fil4" x="18261" y="6199" width="3013" height="695" rx="347" ry="347"/>
  <polygon class="fil5" points="18488,6762 18488,6335 18575,6335 18575,6689 18791,6689 18791,6762 "/>
  <path id="1" class="fil5" d="M19058 6762l0 -47c-11,17 -26,30 -45,40 -19,10 -38,15 -59,15 -21,0 -40,-5 -57,-14 -17,-9 -29,-22 -36,-39 -8,-17 -11,-40 -11,-69l0 -198 82 0 0 144c0,44 2,71 5,81 3,10 9,18 17,24 8,6 18,9 31,9 14,0 27,-4 38,-12 11,-8 19,-17 23,-29 4,-12 6,-40 6,-84l0 -132 82 0 0 312 -76 0z"/>
  <path id="2" class="fil5" d="M19491 6542l-81 14c-3,-16 -9,-28 -19,-36 -10,-8 -22,-12 -38,-12 -21,0 -37,7 -49,21 -12,14 -18,38 -18,71 0,37 6,63 19,79 12,15 29,23 50,23 16,0 28,-5 38,-13 10,-9 17,-24 21,-46l81 14c-8,37 -25,65 -48,84 -24,19 -56,29 -96,29 -45,0 -82,-14 -109,-43 -27,-29 -41,-69 -41,-120 0,-52 14,-92 41,-120 27,-29 64,-43 110,-43 38,0 68,8 90,25 22,16 38,41 48,75z"/>
  <polygon id="3" class="fil5" points="19551,6762 19551,6331 19633,6331 19633,6559 19729,6450 19831,6450 19725,6564 19839,6762 19750,6762 19671,6621 19633,6662 19633,6762 "/>
  <path id="4" class="fil5" d="M20172 6762l-82 0 0 -159c0,-34 -2,-55 -5,-65 -4,-10 -9,-18 -17,-23 -8,-6 -18,-8 -29,-8 -14,0 -27,4 -39,12 -12,8 -19,18 -24,31 -4,13 -6,37 -6,72l0 141 -82 0 0 -312 76 0 0 46c27,-35 62,-52 103,-52 18,0 35,3 50,10 15,7 27,15 34,25 8,10 13,22 16,35 3,13 5,31 5,55l0 194z"/>
  <path id="5" class="fil5" d="M20236 6602c0,-27 7,-54 20,-80 14,-26 33,-45 57,-59 25,-14 52,-20 83,-20 47,0 86,15 116,46 30,31 45,69 45,116 0,47 -15,86 -46,118 -30,31 -69,47 -115,47 -29,0 -56,-7 -82,-19 -26,-13 -46,-32 -59,-57 -14,-25 -20,-55 -20,-91zm85 4c0,31 7,55 22,71 15,17 33,25 54,25 21,0 39,-8 54,-25 15,-16 22,-40 22,-72 0,-31 -7,-54 -22,-71 -15,-17 -33,-25 -54,-25 -22,0 -40,8 -54,25 -15,16 -22,40 -22,71z"/>
  <polygon id="6" class="fil5" points="20680,6762 20581,6450 20662,6450 20720,6654 20774,6450 20853,6450 20905,6654 20965,6450 21046,6450 20946,6762 20867,6762 20813,6561 20760,6762 "/>
  <circle class="fil1 str0" cx="16268" cy="8128" r="79"/>
  <polyline class="fil3 str1" points="16268,7994 16268,6559 18188,6559 "/>
  <rect class="fil4" x="4089" y="8863" width="3981" height="695" rx="347" ry="347"/>
  <path class="fil5" d="M4810 9422l-94 0 -37 -98 -173 0 -36 98 -92 0 167 -430 92 0 172 430zm-159 -171l-60 -159 -58 159 118 0z"/>
  <path id="1" class="fil5" d="M4937 8992l0 160c27,-32 59,-48 96,-48 19,0 36,4 52,11 15,7 27,16 35,27 8,11 13,23 16,36 3,13 4,34 4,62l0 183 -82 0 0 -165c0,-33 -2,-53 -5,-62 -3,-9 -9,-16 -17,-21 -8,-5 -18,-8 -30,-8 -14,0 -26,3 -37,10 -11,7 -19,17 -24,30 -5,13 -8,33 -8,59l0 156 -82 0 0 -430 82 0z"/>
  <path id="2" class="fil5" d="M5217 9110l76 0 0 43c27,-33 60,-49 97,-49 20,0 37,4 52,12 15,8 27,21 36,37 14,-17 29,-29 44,-37 16,-8 33,-12 51,-12 23,0 42,5 58,14 16,9 28,23 35,41 6,13 9,35 9,65l0 199 -82 0 0 -178c0,-31 -3,-51 -9,-60 -8,-12 -19,-18 -35,-18 -12,0 -22,4 -33,11 -10,7 -18,17 -22,31 -5,14 -7,35 -7,64l0 150 -82 0 0 -171c0,-30 -2,-50 -4,-59 -3,-9 -7,-15 -14,-20 -6,-4 -15,-6 -25,-6 -13,0 -24,3 -34,10 -10,7 -17,17 -22,30 -4,13 -7,34 -7,64l0 151 -82 0 0 -312z"/>
  <path id="3" class="fil5" d="M5938 9324l82 14c-11,30 -27,53 -50,69 -23,16 -51,24 -86,24 -54,0 -94,-18 -120,-53 -21,-28 -31,-64 -31,-108 0,-52 14,-92 40,-122 27,-29 61,-44 102,-44 46,0 83,15 110,46 27,31 40,78 38,141l-206 0c1,24 7,43 20,57 13,14 28,20 47,20 13,0 24,-4 32,-11 9,-7 15,-18 20,-34zm5 -84c-1,-24 -7,-42 -18,-55 -12,-13 -26,-19 -43,-19 -18,0 -33,7 -44,20 -12,13 -17,31 -17,54l123 0z"/>
  <path id="4" class="fil5" d="M6378 9422l-76 0 0 -46c-13,18 -28,31 -45,40 -17,9 -35,13 -53,13 -36,0 -67,-14 -92,-43 -26,-29 -38,-69 -38,-121 0,-53 12,-93 37,-121 25,-28 56,-41 94,-41 35,0 65,15 91,43l0 -155 82 0 0 430zm-220 -162c0,33 5,58 14,72 13,22 32,32 56,32 19,0 35,-8 48,-24 13,-16 20,-40 20,-73 0,-36 -6,-62 -19,-78 -13,-16 -29,-24 -50,-24 -20,0 -36,8 -49,23 -13,16 -20,39 -20,70z"/>
  <path id="5" class="fil5" d="M6520 9207l-75 -13c8,-30 23,-53 43,-68 21,-15 51,-22 92,-22 37,0 64,4 82,13 18,9 31,20 38,33 7,13 11,38 11,74l-1 96c0,27 1,48 4,61 3,13 8,27 15,42l-82 0c-2,-5 -5,-13 -8,-24 -1,-5 -2,-8 -3,-10 -14,14 -29,24 -45,31 -16,7 -33,10 -51,10 -32,0 -57,-9 -76,-26 -18,-17 -28,-39 -28,-66 0,-18 4,-33 13,-47 8,-14 20,-24 35,-32 15,-7 37,-14 66,-19 38,-7 65,-14 80,-20l0 -8c0,-16 -4,-27 -12,-34 -8,-7 -23,-10 -44,-10 -15,0 -26,3 -34,9 -8,6 -15,16 -20,31zm111 67c-11,4 -27,8 -50,13 -23,5 -38,10 -45,14 -11,8 -16,17 -16,29 0,12 4,22 13,30 9,8 20,13 33,13 15,0 29,-5 43,-15 10,-8 17,-17 20,-27 2,-7 3,-20 3,-40l0 -16z"/>
  <path id="6" class="fil5" d="M6790 9422l0 -430 82 0 0 155c25,-29 56,-43 90,-43 38,0 69,14 94,41 25,28 37,67 37,119 0,53 -13,94 -38,123 -25,29 -56,43 -92,43 -18,0 -35,-5 -53,-14 -17,-9 -32,-22 -45,-40l0 46 -76 0zm81 -162c0,32 5,56 15,72 14,22 33,33 57,33 18,0 34,-8 47,-23 13,-16 19,-40 19,-74 0,-36 -7,-62 -19,-77 -13,-16 -29,-24 -50,-24 -20,0 -36,8 -49,23 -13,15 -20,39 -20,70z"/>
  <path id="7" class="fil5" d="M7222 9207l-75 -13c8,-30 23,-53 43,-68 21,-15 51,-22 92,-22 37,0 64,4 82,13 18,9 31,20 38,33 7,13 11,38 11,74l-1 96c0,27 1,48 4,61 3,13 8,27 15,42l-82 0c-2,-5 -5,-13 -8,-24 -1,-5 -2,-8 -3,-10 -14,14 -29,24 -45,31 -16,7 -33,10 -51,10 -32,0 -57,-9 -76,-26 -18,-17 -28,-39 -28,-66 0,-18 4,-33 13,-47 8,-14 20,-24 35,-32 15,-7 37,-14 66,-19 38,-7 65,-14 80,-20l0 -8c0,-16 -4,-27 -12,-34 -8,-7 -23,-10 -44,-10 -15,0 -26,3 -34,9 -8,6 -15,16 -20,31zm111 67c-11,4 -27,8 -50,13 -23,5 -38,10 -45,14 -11,8 -16,17 -16,29 0,12 4,22 13,30 9,8 20,13 33,13 15,0 29,-5 43,-15 10,-8 17,-17 20,-27 2,-7 3,-20 3,-40l0 -16z"/>
  <path id="8" class="fil5" d="M7781 9422l-76 0 0 -46c-13,18 -28,31 -45,40 -17,9 -35,13 -53,13 -36,0 -67,-14 -92,-43 -26,-29 -38,-69 -38,-121 0,-53 12,-93 37,-121 25,-28 56,-41 94,-41 35,0 65,15 91,43l0 -155 82 0 0 430zm-220 -162c0,33 5,58 14,72 13,22 32,32 56,32 19,0 35,-8 48,-24 13,-16 20,-40 20,-73 0,-36 -6,-62 -19,-78 -13,-16 -29,-24 -50,-24 -20,0 -36,8 -49,23 -13,16 -20,39 -20,70z"/>
  <g id="_342607816">
   <ellipse class="fil3 str0" cx="10228" cy="10074" rx="151" ry="134"/>
   <ellipse class="fil1 str0" cx="10228" cy="10074" rx="89" ry="79"/>
   <polyline class="fil3 str1" points="10228,9940 10228,9193 8070,9193 "/>
  </g>
  <rect class="fil4" x="4989" y="11191" width="3981" height="695" rx="347" ry="347"/>
  <polygon class="fil5" points="5886,11751 5886,11320 6016,11320 6094,11614 6170,11320 6301,11320 6301,11751 6220,11751 6220,11412 6135,11751 6051,11751 5967,11412 5966,11751 "/>
  <path id="1" class="fil5" d="M6593 11751l0 -47c-11,17 -26,30 -45,40 -19,10 -38,15 -59,15 -21,0 -40,-5 -57,-14 -17,-9 -29,-22 -36,-39 -8,-17 -11,-40 -11,-69l0 -198 82 0 0 144c0,44 2,71 5,81 3,10 9,18 17,24 8,6 18,9 31,9 14,0 27,-4 38,-12 11,-8 19,-17 23,-29 4,-12 6,-40 6,-84l0 -132 82 0 0 312 -76 0z"/>
  <path id="2" class="fil5" d="M6748 11439l76 0 0 43c27,-33 60,-49 97,-49 20,0 37,4 52,12 15,8 27,21 36,37 14,-17 29,-29 44,-37 16,-8 33,-12 51,-12 23,0 42,5 58,14 16,9 28,23 35,41 6,13 9,35 9,65l0 199 -82 0 0 -178c0,-31 -3,-51 -9,-60 -8,-12 -19,-18 -35,-18 -12,0 -22,4 -33,11 -10,7 -18,17 -22,31 -5,14 -7,35 -7,64l0 150 -82 0 0 -171c0,-30 -2,-50 -4,-59 -3,-9 -7,-15 -14,-20 -6,-4 -15,-6 -25,-6 -13,0 -24,3 -34,10 -10,7 -17,17 -22,30 -4,13 -7,34 -7,64l0 151 -82 0 0 -312z"/>
  <path id="3" class="fil5" d="M7285 11751l0 -430 82 0 0 155c25,-29 56,-43 90,-43 38,0 69,14 94,41 25,28 37,67 37,119 0,53 -13,94 -38,123 -25,29 -56,43 -92,43 -18,0 -35,-5 -53,-14 -17,-9 -32,-22 -45,-40l0 46 -76 0zm81 -162c0,32 5,56 15,72 14,22 33,33 57,33 18,0 34,-8 47,-23 13,-16 19,-40 19,-74 0,-36 -7,-62 -19,-77 -13,-16 -29,-24 -50,-24 -20,0 -36,8 -49,23 -13,15 -20,39 -20,70z"/>
  <path id="4" class="fil5" d="M7718 11535l-75 -13c8,-30 23,-53 43,-68 21,-15 51,-22 92,-22 37,0 64,4 82,13 18,9 31,20 38,33 7,13 11,38 11,74l-1 96c0,27 1,48 4,61 3,13 8,27 15,42l-82 0c-2,-5 -5,-13 -8,-24 -1,-5 -2,-8 -3,-10 -14,14 -29,24 -45,31 -16,7 -33,10 -51,10 -32,0 -57,-9 -76,-26 -18,-17 -28,-39 -28,-66 0,-18 4,-33 13,-47 8,-14 20,-24 35,-32 15,-7 37,-14 66,-19 38,-7 65,-14 80,-20l0 -8c0,-16 -4,-27 -12,-34 -8,-7 -23,-10 -44,-10 -15,0 -26,3 -34,9 -8,6 -15,16 -20,31zm111 67c-11,4 -27,8 -50,13 -23,5 -38,10 -45,14 -11,8 -16,17 -16,29 0,12 4,22 13,30 9,8 20,13 33,13 15,0 29,-5 43,-15 10,-8 17,-17 20,-27 2,-7 3,-20 3,-40l0 -16z"/>
  <path id="5" class="fil5" d="M7991 11397l0 -76 82 0 0 76 -82 0zm0 354l0 -312 82 0 0 312 -82 0z"/>
  <g id="_523099872">
   <ellipse class="fil3 str0" cx="11128" cy="12403" rx="151" ry="134"/>
   <ellipse class="fil1 str0" cx="11128" cy="12403" rx="89" ry="79"/>
   <polyline class="fil3 str1" points="11128,12269 11128,11521 8969,11521 "/>
  </g>
  <rect class="fil4" x="5836" y="12488" width="3981" height="695" rx="347" ry="347"/>
  <path class="fil5" d="M7125 13047l0 -430 139 0c53,0 87,2 103,6 25,7 45,21 62,42 17,22 25,50 25,84 0,26 -5,49 -14,67 -10,18 -22,32 -36,42 -15,10 -30,17 -45,20 -21,4 -51,6 -90,6l-57 0 0 162 -87 0zm87 -358l0 123 47 0c34,0 57,-2 68,-7 12,-5 21,-12 27,-21 7,-10 10,-21 10,-34 0,-16 -5,-29 -14,-39 -9,-10 -21,-17 -35,-19 -10,-2 -31,-3 -62,-3l-42 0z"/>
  <path id="1" class="fil5" d="M7731 13047l0 -47c-11,17 -26,30 -45,40 -19,10 -38,15 -59,15 -21,0 -40,-5 -57,-14 -17,-9 -29,-22 -36,-39 -8,-17 -11,-40 -11,-69l0 -198 82 0 0 144c0,44 2,71 5,81 3,10 9,18 17,24 8,6 18,9 31,9 14,0 27,-4 38,-12 11,-8 19,-17 23,-29 4,-12 6,-40 6,-84l0 -132 82 0 0 312 -76 0z"/>
  <path id="2" class="fil5" d="M8176 13047l-82 0 0 -159c0,-34 -2,-55 -5,-65 -4,-10 -9,-18 -17,-23 -8,-6 -18,-8 -29,-8 -14,0 -27,4 -39,12 -12,8 -19,18 -24,31 -4,13 -6,37 -6,72l0 141 -82 0 0 -312 76 0 0 46c27,-35 62,-52 103,-52 18,0 35,3 50,10 15,7 27,15 34,25 8,10 13,22 16,35 3,13 5,31 5,55l0 194z"/>
  <path id="3" class="fil5" d="M8440 12949l82 14c-11,30 -27,53 -50,69 -23,16 -51,24 -86,24 -54,0 -94,-18 -120,-53 -21,-28 -31,-64 -31,-108 0,-52 14,-92 40,-122 27,-29 61,-44 102,-44 46,0 83,15 110,46 27,31 40,78 38,141l-206 0c1,24 7,43 20,57 13,14 28,20 47,20 13,0 24,-4 32,-11 9,-7 15,-18 20,-34zm5 -84c-1,-24 -7,-42 -18,-55 -12,-13 -26,-19 -43,-19 -18,0 -33,7 -44,20 -12,13 -17,31 -17,54l123 0z"/>
  <g id="_523098432">
   <ellipse class="fil3 str0" cx="11974" cy="13699" rx="151" ry="134"/>
   <ellipse class="fil1 str0" cx="11974" cy="13699" rx="89" ry="79"/>
   <polyline class="fil3 str1" points="11974,13565 11974,12818 9816,12818 "/>
  </g>
  <rect class="fil4" x="7317" y="15001" width="3981" height="695" rx="347" ry="347"/>
  <path class="fil5" d="M7871 15130l172 0c34,0 60,1 76,4 17,3 32,9 45,18 13,9 24,21 33,36 9,15 13,32 13,50 0,20 -5,39 -16,55 -11,17 -26,29 -44,38 26,8 46,21 60,39 14,18 21,40 21,65 0,20 -5,39 -14,57 -9,19 -22,33 -37,44 -16,11 -35,18 -58,20 -14,2 -49,3 -105,3l-147 0 0 -430zm87 72l0 99 57 0c34,0 55,-1 63,-2 15,-2 27,-7 35,-15 9,-9 13,-20 13,-33 0,-13 -4,-24 -11,-32 -7,-8 -18,-13 -33,-15 -9,-1 -33,-2 -74,-2l-50 0zm0 171l0 115 81 0c31,0 51,-1 60,-3 13,-2 23,-8 32,-17 8,-9 12,-21 12,-37 0,-13 -3,-24 -9,-33 -6,-9 -15,-16 -27,-20 -12,-4 -38,-6 -77,-6l-70 0z"/>
  <path id="1" class="fil5" d="M8366 15345l-75 -13c8,-30 23,-53 43,-68 21,-15 51,-22 92,-22 37,0 64,4 82,13 18,9 31,20 38,33 7,13 11,38 11,74l-1 96c0,27 1,48 4,61 3,13 8,27 15,42l-82 0c-2,-5 -5,-13 -8,-24 -1,-5 -2,-8 -3,-10 -14,14 -29,24 -45,31 -16,7 -33,10 -51,10 -32,0 -57,-9 -76,-26 -18,-17 -28,-39 -28,-66 0,-18 4,-33 13,-47 8,-14 20,-24 35,-32 15,-7 37,-14 66,-19 38,-7 65,-14 80,-20l0 -8c0,-16 -4,-27 -12,-34 -8,-7 -23,-10 -44,-10 -15,0 -26,3 -34,9 -8,6 -15,16 -20,31zm111 67c-11,4 -27,8 -50,13 -23,5 -38,10 -45,14 -11,8 -16,17 -16,29 0,12 4,22 13,30 9,8 20,13 33,13 15,0 29,-5 43,-15 10,-8 17,-17 20,-27 2,-7 3,-20 3,-40l0 -16z"/>
  <path id="2" class="fil5" d="M8923 15561l-82 0 0 -159c0,-34 -2,-55 -5,-65 -4,-10 -9,-18 -17,-23 -8,-6 -18,-8 -29,-8 -14,0 -27,4 -39,12 -12,8 -19,18 -24,31 -4,13 -6,37 -6,72l0 141 -82 0 0 -312 76 0 0 46c27,-35 62,-52 103,-52 18,0 35,3 50,10 15,7 27,15 34,25 8,10 13,22 16,35 3,13 5,31 5,55l0 194z"/>
  <path id="3" class="fil5" d="M8999 15581l94 11c2,11 5,19 11,23 8,6 20,9 37,9 22,0 38,-3 48,-10 7,-4 13,-11 16,-21 3,-7 4,-20 4,-38l0 -46c-25,34 -56,51 -94,51 -42,0 -75,-18 -100,-53 -19,-28 -29,-63 -29,-104 0,-52 13,-92 38,-120 25,-28 57,-41 94,-41 39,0 70,17 95,51l0 -44 77 0 0 280c0,37 -3,64 -9,82 -6,18 -15,32 -26,43 -11,10 -26,19 -44,24 -18,6 -41,9 -69,9 -53,0 -90,-9 -113,-27 -22,-18 -33,-41 -33,-69 0,-3 0,-6 0,-10zm74 -182c0,33 6,57 19,73 13,15 29,23 47,23 20,0 37,-8 51,-24 14,-16 21,-39 21,-70 0,-32 -7,-56 -20,-72 -13,-16 -30,-23 -50,-23 -20,0 -36,8 -49,23 -13,15 -19,39 -19,70z"/>
  <path id="4" class="fil5" d="M9435 15345l-75 -13c8,-30 23,-53 43,-68 21,-15 51,-22 92,-22 37,0 64,4 82,13 18,9 31,20 38,33 7,13 11,38 11,74l-1 96c0,27 1,48 4,61 3,13 8,27 15,42l-82 0c-2,-5 -5,-13 -8,-24 -1,-5 -2,-8 -3,-10 -14,14 -29,24 -45,31 -16,7 -33,10 -51,10 -32,0 -57,-9 -76,-26 -18,-17 -28,-39 -28,-66 0,-18 4,-33 13,-47 8,-14 20,-24 35,-32 15,-7 37,-14 66,-19 38,-7 65,-14 80,-20l0 -8c0,-16 -4,-27 -12,-34 -8,-7 -23,-10 -44,-10 -15,0 -26,3 -34,9 -8,6 -15,16 -20,31zm111 67c-11,4 -27,8 -50,13 -23,5 -38,10 -45,14 -11,8 -16,17 -16,29 0,12 4,22 13,30 9,8 20,13 33,13 15,0 29,-5 43,-15 10,-8 17,-17 20,-27 2,-7 3,-20 3,-40l0 -16z"/>
  <polygon id="5" class="fil5" points="9708,15561 9708,15130 9790,15130 9790,15561 "/>
  <path id="6" class="fil5" d="M9856 15401c0,-27 7,-54 20,-80 14,-26 33,-45 57,-59 25,-14 52,-20 83,-20 47,0 86,15 116,46 30,31 45,69 45,116 0,47 -15,86 -46,118 -30,31 -69,47 -115,47 -29,0 -56,-7 -82,-19 -26,-13 -46,-32 -59,-57 -14,-25 -20,-55 -20,-91zm85 4c0,31 7,55 22,71 15,17 33,25 54,25 21,0 39,-8 54,-25 15,-16 22,-40 22,-72 0,-31 -7,-54 -22,-71 -15,-17 -33,-25 -54,-25 -22,0 -40,8 -54,25 -15,16 -22,40 -22,71z"/>
  <path id="7" class="fil5" d="M10321 15561l-82 0 0 -312 76 0 0 44c13,-21 25,-35 35,-41 11,-7 22,-10 36,-10 19,0 37,5 54,16l-26 72c-14,-9 -27,-14 -39,-14 -12,0 -21,3 -29,10 -8,6 -14,18 -19,34 -5,17 -7,52 -7,105l0 96z"/>
  <path id="8" class="fil5" d="M10657 15462l82 14c-11,30 -27,53 -50,69 -23,16 -51,24 -86,24 -54,0 -94,-18 -120,-53 -21,-28 -31,-64 -31,-108 0,-52 14,-92 40,-122 27,-29 61,-44 102,-44 46,0 83,15 110,46 27,31 40,78 38,141l-206 0c1,24 7,43 20,57 13,14 28,20 47,20 13,0 24,-4 32,-11 9,-7 15,-18 20,-34zm5 -84c-1,-24 -7,-42 -18,-55 -12,-13 -26,-19 -43,-19 -18,0 -33,7 -44,20 -12,13 -17,31 -17,54l123 0z"/>
  <g id="_524255112">
   <ellipse class="fil3 str0" cx="13456" cy="16213" rx="151" ry="134"/>
   <ellipse class="fil1 str0" cx="13456" cy="16213" rx="89" ry="79"/>
   <polyline class="fil3 str1" points="13456,16079 13456,15331 11298,15331 "/>
  </g>
  <rect class="fil4" x="6762" y="16827" width="3981" height="695" rx="347" ry="347"/>
  <polygon class="fil5" points="7866,17386 7866,16956 7953,16956 7953,17147 8129,16956 8245,16956 8083,17124 8254,17386 8141,17386 8023,17184 7953,17256 7953,17386 "/>
  <path id="1" class="fil5" d="M8479 17288l82 14c-11,30 -27,53 -50,69 -23,16 -51,24 -86,24 -54,0 -94,-18 -120,-53 -21,-28 -31,-64 -31,-108 0,-52 14,-92 40,-122 27,-29 61,-44 102,-44 46,0 83,15 110,46 27,31 40,78 38,141l-206 0c1,24 7,43 20,57 13,14 28,20 47,20 13,0 24,-4 32,-11 9,-7 15,-18 20,-34zm5 -84c-1,-24 -7,-42 -18,-55 -12,-13 -26,-19 -43,-19 -18,0 -33,7 -44,20 -12,13 -17,31 -17,54l123 0z"/>
  <path id="2" class="fil5" d="M8711 17386l-82 0 0 -312 76 0 0 44c13,-21 25,-35 35,-41 11,-7 22,-10 36,-10 19,0 37,5 54,16l-26 72c-14,-9 -27,-14 -39,-14 -12,0 -21,3 -29,10 -8,6 -14,18 -19,34 -5,17 -7,52 -7,105l0 96z"/>
  <path id="3" class="fil5" d="M8928 17171l-75 -13c8,-30 23,-53 43,-68 21,-15 51,-22 92,-22 37,0 64,4 82,13 18,9 31,20 38,33 7,13 11,38 11,74l-1 96c0,27 1,48 4,61 3,13 8,27 15,42l-82 0c-2,-5 -5,-13 -8,-24 -1,-5 -2,-8 -3,-10 -14,14 -29,24 -45,31 -16,7 -33,10 -51,10 -32,0 -57,-9 -76,-26 -18,-17 -28,-39 -28,-66 0,-18 4,-33 13,-47 8,-14 20,-24 35,-32 15,-7 37,-14 66,-19 38,-7 65,-14 80,-20l0 -8c0,-16 -4,-27 -12,-34 -8,-7 -23,-10 -44,-10 -15,0 -26,3 -34,9 -8,6 -15,16 -20,31zm111 67c-11,4 -27,8 -50,13 -23,5 -38,10 -45,14 -11,8 -16,17 -16,29 0,12 4,22 13,30 9,8 20,13 33,13 15,0 29,-5 43,-15 10,-8 17,-17 20,-27 2,-7 3,-20 3,-40l0 -16z"/>
  <polygon id="4" class="fil5" points="9201,17386 9201,16956 9283,16956 9283,17386 "/>
  <path id="5" class="fil5" d="M9429 17171l-75 -13c8,-30 23,-53 43,-68 21,-15 51,-22 92,-22 37,0 64,4 82,13 18,9 31,20 38,33 7,13 11,38 11,74l-1 96c0,27 1,48 4,61 3,13 8,27 15,42l-82 0c-2,-5 -5,-13 -8,-24 -1,-5 -2,-8 -3,-10 -14,14 -29,24 -45,31 -16,7 -33,10 -51,10 -32,0 -57,-9 -76,-26 -18,-17 -28,-39 -28,-66 0,-18 4,-33 13,-47 8,-14 20,-24 35,-32 15,-7 37,-14 66,-19 38,-7 65,-14 80,-20l0 -8c0,-16 -4,-27 -12,-34 -8,-7 -23,-10 -44,-10 -15,0 -26,3 -34,9 -8,6 -15,16 -20,31zm111 67c-11,4 -27,8 -50,13 -23,5 -38,10 -45,14 -11,8 -16,17 -16,29 0,12 4,22 13,30 9,8 20,13 33,13 15,0 29,-5 43,-15 10,-8 17,-17 20,-27 2,-7 3,-20 3,-40l0 -16z"/>
  <g id="_524253480">
   <ellipse class="fil3 str0" cx="12900" cy="18038" rx="151" ry="134"/>
   <ellipse class="fil1 str0" cx="12900" cy="18038" rx="89" ry="79"/>
   <polyline class="fil3 str1" points="12900,17904 12900,17157 10742,17157 "/>
  </g>
  <rect class="fil4" x="17107" y="18411" width="3981" height="695" rx="347" ry="347"/>
  <polygon class="fil5" points="17537,18971 17537,18613 17409,18613 17409,18540 17751,18540 17751,18613 17624,18613 17624,18971 "/>
  <path id="1" class="fil5" d="M17823 18755l-75 -13c8,-30 23,-53 43,-68 21,-15 51,-22 92,-22 37,0 64,4 82,13 18,9 31,20 38,33 7,13 11,38 11,74l-1 96c0,27 1,48 4,61 3,13 8,27 15,42l-82 0c-2,-5 -5,-13 -8,-24 -1,-5 -2,-8 -3,-10 -14,14 -29,24 -45,31 -16,7 -33,10 -51,10 -32,0 -57,-9 -76,-26 -18,-17 -28,-39 -28,-66 0,-18 4,-33 13,-47 8,-14 20,-24 35,-32 15,-7 37,-14 66,-19 38,-7 65,-14 80,-20l0 -8c0,-16 -4,-27 -12,-34 -8,-7 -23,-10 -44,-10 -15,0 -26,3 -34,9 -8,6 -15,16 -20,31zm111 67c-11,4 -27,8 -50,13 -23,5 -38,10 -45,14 -11,8 -16,17 -16,29 0,12 4,22 13,30 9,8 20,13 33,13 15,0 29,-5 43,-15 10,-8 17,-17 20,-27 2,-7 3,-20 3,-40l0 -16z"/>
  <path id="2" class="fil5" d="M18090 18659l76 0 0 43c27,-33 60,-49 97,-49 20,0 37,4 52,12 15,8 27,21 36,37 14,-17 29,-29 44,-37 16,-8 33,-12 51,-12 23,0 42,5 58,14 16,9 28,23 35,41 6,13 9,35 9,65l0 199 -82 0 0 -178c0,-31 -3,-51 -9,-60 -8,-12 -19,-18 -35,-18 -12,0 -22,4 -33,11 -10,7 -18,17 -22,31 -5,14 -7,35 -7,64l0 150 -82 0 0 -171c0,-30 -2,-50 -4,-59 -3,-9 -7,-15 -14,-20 -6,-4 -15,-6 -25,-6 -13,0 -24,3 -34,10 -10,7 -17,17 -22,30 -4,13 -7,34 -7,64l0 151 -82 0 0 -312z"/>
  <path id="3" class="fil5" d="M18631 18617l0 -76 82 0 0 76 -82 0zm0 354l0 -312 82 0 0 312 -82 0z"/>
  <polygon id="4" class="fil5" points="18798,18971 18798,18540 18880,18540 18880,18971 "/>
  <polygon id="5" class="fil5" points="19132,18971 19132,18540 19217,18540 19394,18829 19394,18540 19474,18540 19474,18971 19387,18971 19213,18688 19213,18971 "/>
  <path id="6" class="fil5" d="M19627 18755l-75 -13c8,-30 23,-53 43,-68 21,-15 51,-22 92,-22 37,0 64,4 82,13 18,9 31,20 38,33 7,13 11,38 11,74l-1 96c0,27 1,48 4,61 3,13 8,27 15,42l-82 0c-2,-5 -5,-13 -8,-24 -1,-5 -2,-8 -3,-10 -14,14 -29,24 -45,31 -16,7 -33,10 -51,10 -32,0 -57,-9 -76,-26 -18,-17 -28,-39 -28,-66 0,-18 4,-33 13,-47 8,-14 20,-24 35,-32 15,-7 37,-14 66,-19 38,-7 65,-14 80,-20l0 -8c0,-16 -4,-27 -12,-34 -8,-7 -23,-10 -44,-10 -15,0 -26,3 -34,9 -8,6 -15,16 -20,31zm111 67c-11,4 -27,8 -50,13 -23,5 -38,10 -45,14 -11,8 -16,17 -16,29 0,12 4,22 13,30 9,8 20,13 33,13 15,0 29,-5 43,-15 10,-8 17,-17 20,-27 2,-7 3,-20 3,-40l0 -16z"/>
  <path id="7" class="fil5" d="M20186 18971l-76 0 0 -46c-13,18 -28,31 -45,40 -17,9 -35,13 -53,13 -36,0 -67,-14 -92,-43 -26,-29 -38,-69 -38,-121 0,-53 12,-93 37,-121 25,-28 56,-41 94,-41 35,0 65,15 91,43l0 -155 82 0 0 430zm-220 -162c0,33 5,58 14,72 13,22 32,32 56,32 19,0 35,-8 48,-24 13,-16 20,-40 20,-73 0,-36 -6,-62 -19,-78 -13,-16 -29,-24 -50,-24 -20,0 -36,8 -49,23 -13,16 -20,39 -20,70z"/>
  <path id="8" class="fil5" d="M20474 18971l0 -47c-11,17 -26,30 -45,40 -19,10 -38,15 -59,15 -21,0 -40,-5 -57,-14 -17,-9 -29,-22 -36,-39 -8,-17 -11,-40 -11,-69l0 -198 82 0 0 144c0,44 2,71 5,81 3,10 9,18 17,24 8,6 18,9 31,9 14,0 27,-4 38,-12 11,-8 19,-17 23,-29 4,-12 6,-40 6,-84l0 -132 82 0 0 312 -76 0z"/>
  <g id="_343763064">
   <ellipse class="fil3 str0" cx="14522" cy="17738" rx="185" ry="165"/>
   <ellipse class="fil1 str0" cx="14522" cy="17738" rx="110" ry="98"/>
   <polyline class="fil3 str1" points="14522,17903 14522,18822 17177,18822 "/>
  </g>
  <polygon class="fil1 str0" points="19535,16924 19428,17052 19393,17217 19428,17281 19388,17336 19416,17444 19438,17556 19456,17801 19507,17750 19505,16979 "/>
  <rect class="fil4" x="17471" y="16851" width="3981" height="695" rx="347" ry="347"/>
  <path class="fil5" d="M18601 17252l84 26c-13,47 -34,83 -65,106 -30,23 -68,34 -114,34 -57,0 -104,-20 -141,-59 -37,-39 -55,-92 -55,-160 0,-72 19,-127 56,-167 37,-40 86,-60 146,-60 53,0 95,16 128,47 20,18 34,45 44,79l-86 20c-5,-22 -16,-40 -32,-53 -16,-13 -36,-19 -59,-19 -32,0 -58,11 -78,34 -20,23 -30,60 -30,111 0,54 10,93 29,116 20,23 45,35 76,35 23,0 43,-7 60,-22 17,-15 29,-38 36,-69z"/>
  <path id="1" class="fil5" d="M18841 16980l0 160c27,-32 59,-48 96,-48 19,0 36,4 52,11 15,7 27,16 35,27 8,11 13,23 16,36 3,13 4,34 4,62l0 183 -82 0 0 -165c0,-33 -2,-53 -5,-62 -3,-9 -9,-16 -17,-21 -8,-5 -18,-8 -30,-8 -14,0 -26,3 -37,10 -11,7 -19,17 -24,30 -5,13 -8,33 -8,59l0 156 -82 0 0 -430 82 0z"/>
  <path id="2" class="fil5" d="M19307 17312l82 14c-11,30 -27,53 -50,69 -23,16 -51,24 -86,24 -54,0 -94,-18 -120,-53 -21,-28 -31,-64 -31,-108 0,-52 14,-92 40,-122 27,-29 61,-44 102,-44 46,0 83,15 110,46 27,31 40,78 38,141l-206 0c1,24 7,43 20,57 13,14 28,20 47,20 13,0 24,-4 32,-11 9,-7 15,-18 20,-34zm5 -84c-1,-24 -7,-42 -18,-55 -12,-13 -26,-19 -43,-19 -18,0 -33,7 -44,20 -12,13 -17,31 -17,54l123 0z"/>
  <path id="3" class="fil5" d="M19745 17410l-82 0 0 -159c0,-34 -2,-55 -5,-65 -4,-10 -9,-18 -17,-23 -8,-6 -18,-8 -29,-8 -14,0 -27,4 -39,12 -12,8 -19,18 -24,31 -4,13 -6,37 -6,72l0 141 -82 0 0 -312 76 0 0 46c27,-35 62,-52 103,-52 18,0 35,3 50,10 15,7 27,15 34,25 8,10 13,22 16,35 3,13 5,31 5,55l0 194z"/>
  <path id="4" class="fil5" d="M20112 17410l-82 0 0 -159c0,-34 -2,-55 -5,-65 -4,-10 -9,-18 -17,-23 -8,-6 -18,-8 -29,-8 -14,0 -27,4 -39,12 -12,8 -19,18 -24,31 -4,13 -6,37 -6,72l0 141 -82 0 0 -312 76 0 0 46c27,-35 62,-52 103,-52 18,0 35,3 50,10 15,7 27,15 34,25 8,10 13,22 16,35 3,13 5,31 5,55l0 194z"/>
  <path id="5" class="fil5" d="M20257 17195l-75 -13c8,-30 23,-53 43,-68 21,-15 51,-22 92,-22 37,0 64,4 82,13 18,9 31,20 38,33 7,13 11,38 11,74l-1 96c0,27 1,48 4,61 3,13 8,27 15,42l-82 0c-2,-5 -5,-13 -8,-24 -1,-5 -2,-8 -3,-10 -14,14 -29,24 -45,31 -16,7 -33,10 -51,10 -32,0 -57,-9 -76,-26 -18,-17 -28,-39 -28,-66 0,-18 4,-33 13,-47 8,-14 20,-24 35,-32 15,-7 37,-14 66,-19 38,-7 65,-14 80,-20l0 -8c0,-16 -4,-27 -12,-34 -8,-7 -23,-10 -44,-10 -15,0 -26,3 -34,9 -8,6 -15,16 -20,31zm111 67c-11,4 -27,8 -50,13 -23,5 -38,10 -45,14 -11,8 -16,17 -16,29 0,12 4,22 13,30 9,8 20,13 33,13 15,0 29,-5 43,-15 10,-8 17,-17 20,-27 2,-7 3,-20 3,-40l0 -16z"/>
  <path id="6" class="fil5" d="M20530 17056l0 -76 82 0 0 76 -82 0zm0 354l0 -312 82 0 0 312 -82 0z"/>
  <g id="_343721960">
   <ellipse class="fil3 str0" cx="14846" cy="16178" rx="185" ry="165"/>
   <ellipse class="fil1 str0" cx="14846" cy="16178" rx="110" ry="98"/>
   <polyline class="fil3 str1" points="14846,16342 14846,17262 17501,17262 "/>
  </g>
  <polygon class="fil1 str0" points="17439,14225 17332,14353 17297,14518 17332,14582 17292,14637 17320,14745 17342,14857 17360,15102 17411,15051 17409,14280 "/>
  <rect class="fil4" x="16611" y="14152" width="3981" height="695" rx="347" ry="347"/>
  <polygon class="fil5" points="17089,14712 17089,14281 17176,14281 17176,14451 17345,14451 17345,14281 17432,14281 17432,14712 17345,14712 17345,14524 17176,14524 17176,14712 "/>
  <path id="1" class="fil5" d="M17482 14400l88 0 75 221 73 -221 85 0 -110 300 -20 54c-7,18 -14,32 -21,42 -7,10 -14,17 -23,23 -9,6 -19,11 -32,14 -12,3 -27,5 -42,5 -16,0 -31,-2 -47,-5l-7 -64c13,3 25,4 35,4 19,0 33,-6 43,-17 9,-11 16,-26 21,-43l-119 -313z"/>
  <path id="2" class="fil5" d="M18143 14712l-76 0 0 -46c-13,18 -28,31 -45,40 -17,9 -35,13 -53,13 -36,0 -67,-14 -92,-43 -26,-29 -38,-69 -38,-121 0,-53 12,-93 37,-121 25,-28 56,-41 94,-41 35,0 65,15 91,43l0 -155 82 0 0 430zm-220 -162c0,33 5,58 14,72 13,22 32,32 56,32 19,0 35,-8 48,-24 13,-16 20,-40 20,-73 0,-36 -6,-62 -19,-78 -13,-16 -29,-24 -50,-24 -20,0 -36,8 -49,23 -13,16 -20,39 -20,70z"/>
  <path id="3" class="fil5" d="M18404 14613l82 14c-11,30 -27,53 -50,69 -23,16 -51,24 -86,24 -54,0 -94,-18 -120,-53 -21,-28 -31,-64 -31,-108 0,-52 14,-92 40,-122 27,-29 61,-44 102,-44 46,0 83,15 110,46 27,31 40,78 38,141l-206 0c1,24 7,43 20,57 13,14 28,20 47,20 13,0 24,-4 32,-11 9,-7 15,-18 20,-34zm5 -84c-1,-24 -7,-42 -18,-55 -12,-13 -26,-19 -43,-19 -18,0 -33,7 -44,20 -12,13 -17,31 -17,54l123 0z"/>
  <path id="4" class="fil5" d="M18637 14712l-82 0 0 -312 76 0 0 44c13,-21 25,-35 35,-41 11,-7 22,-10 36,-10 19,0 37,5 54,16l-26 72c-14,-9 -27,-14 -39,-14 -12,0 -21,3 -29,10 -8,6 -14,18 -19,34 -5,17 -7,52 -7,105l0 96z"/>
  <path id="5" class="fil5" d="M18853 14496l-75 -13c8,-30 23,-53 43,-68 21,-15 51,-22 92,-22 37,0 64,4 82,13 18,9 31,20 38,33 7,13 11,38 11,74l-1 96c0,27 1,48 4,61 3,13 8,27 15,42l-82 0c-2,-5 -5,-13 -8,-24 -1,-5 -2,-8 -3,-10 -14,14 -29,24 -45,31 -16,7 -33,10 -51,10 -32,0 -57,-9 -76,-26 -18,-17 -28,-39 -28,-66 0,-18 4,-33 13,-47 8,-14 20,-24 35,-32 15,-7 37,-14 66,-19 38,-7 65,-14 80,-20l0 -8c0,-16 -4,-27 -12,-34 -8,-7 -23,-10 -44,-10 -15,0 -26,3 -34,9 -8,6 -15,16 -20,31zm111 67c-11,4 -27,8 -50,13 -23,5 -38,10 -45,14 -11,8 -16,17 -16,29 0,12 4,22 13,30 9,8 20,13 33,13 15,0 29,-5 43,-15 10,-8 17,-17 20,-27 2,-7 3,-20 3,-40l0 -16z"/>
  <path id="6" class="fil5" d="M19123 14712l0 -430 82 0 0 155c25,-29 56,-43 90,-43 38,0 69,14 94,41 25,28 37,67 37,119 0,53 -13,94 -38,123 -25,29 -56,43 -92,43 -18,0 -35,-5 -53,-14 -17,-9 -32,-22 -45,-40l0 46 -76 0zm81 -162c0,32 5,56 15,72 14,22 33,33 57,33 18,0 34,-8 47,-23 13,-16 19,-40 19,-74 0,-36 -7,-62 -19,-77 -13,-16 -29,-24 -50,-24 -20,0 -36,8 -49,23 -13,15 -20,39 -20,70z"/>
  <path id="7" class="fil5" d="M19555 14496l-75 -13c8,-30 23,-53 43,-68 21,-15 51,-22 92,-22 37,0 64,4 82,13 18,9 31,20 38,33 7,13 11,38 11,74l-1 96c0,27 1,48 4,61 3,13 8,27 15,42l-82 0c-2,-5 -5,-13 -8,-24 -1,-5 -2,-8 -3,-10 -14,14 -29,24 -45,31 -16,7 -33,10 -51,10 -32,0 -57,-9 -76,-26 -18,-17 -28,-39 -28,-66 0,-18 4,-33 13,-47 8,-14 20,-24 35,-32 15,-7 37,-14 66,-19 38,-7 65,-14 80,-20l0 -8c0,-16 -4,-27 -12,-34 -8,-7 -23,-10 -44,-10 -15,0 -26,3 -34,9 -8,6 -15,16 -20,31zm111 67c-11,4 -27,8 -50,13 -23,5 -38,10 -45,14 -11,8 -16,17 -16,29 0,12 4,22 13,30 9,8 20,13 33,13 15,0 29,-5 43,-15 10,-8 17,-17 20,-27 2,-7 3,-20 3,-40l0 -16z"/>
  <path id="8" class="fil5" d="M20114 14712l-76 0 0 -46c-13,18 -28,31 -45,40 -17,9 -35,13 -53,13 -36,0 -67,-14 -92,-43 -26,-29 -38,-69 -38,-121 0,-53 12,-93 37,-121 25,-28 56,-41 94,-41 35,0 65,15 91,43l0 -155 82 0 0 430zm-220 -162c0,33 5,58 14,72 13,22 32,32 56,32 19,0 35,-8 48,-24 13,-16 20,-40 20,-73 0,-36 -6,-62 -19,-78 -13,-16 -29,-24 -50,-24 -20,0 -36,8 -49,23 -13,16 -20,39 -20,70z"/>
  <g id="_519766808">
   <ellipse class="fil3 str0" cx="14026" cy="13479" rx="185" ry="165"/>
   <ellipse class="fil1 str0" cx="14026" cy="13479" rx="110" ry="98"/>
   <polyline class="fil3 str1" points="14026,13644 14026,14563 16681,14563 "/>
  </g>
  <polygon class="fil1 str0" points="18021,12664 17914,12792 17879,12957 17914,13021 17874,13076 17902,13184 17924,13296 17942,13541 17993,13490 17991,12719 "/>
  <rect class="fil4" x="18516" y="12591" width="3981" height="695" rx="347" ry="347"/>
  <polygon class="fil5" points="19472,13151 19472,12720 19557,12720 19734,13009 19734,12720 19814,12720 19814,13151 19727,13151 19553,12868 19553,13151 "/>
  <path id="1" class="fil5" d="M19967 12935l-75 -13c8,-30 23,-53 43,-68 21,-15 51,-22 92,-22 37,0 64,4 82,13 18,9 31,20 38,33 7,13 11,38 11,74l-1 96c0,27 1,48 4,61 3,13 8,27 15,42l-82 0c-2,-5 -5,-13 -8,-24 -1,-5 -2,-8 -3,-10 -14,14 -29,24 -45,31 -16,7 -33,10 -51,10 -32,0 -57,-9 -76,-26 -18,-17 -28,-39 -28,-66 0,-18 4,-33 13,-47 8,-14 20,-24 35,-32 15,-7 37,-14 66,-19 38,-7 65,-14 80,-20l0 -8c0,-16 -4,-27 -12,-34 -8,-7 -23,-10 -44,-10 -15,0 -26,3 -34,9 -8,6 -15,16 -20,31zm111 67c-11,4 -27,8 -50,13 -23,5 -38,10 -45,14 -11,8 -16,17 -16,29 0,12 4,22 13,30 9,8 20,13 33,13 15,0 29,-5 43,-15 10,-8 17,-17 20,-27 2,-7 3,-20 3,-40l0 -16z"/>
  <path id="2" class="fil5" d="M20232 13170l94 11c2,11 5,19 11,23 8,6 20,9 37,9 22,0 38,-3 48,-10 7,-4 13,-11 16,-21 3,-7 4,-20 4,-38l0 -46c-25,34 -56,51 -94,51 -42,0 -75,-18 -100,-53 -19,-28 -29,-63 -29,-104 0,-52 13,-92 38,-120 25,-28 57,-41 94,-41 39,0 70,17 95,51l0 -44 77 0 0 280c0,37 -3,64 -9,82 -6,18 -15,32 -26,43 -11,10 -26,19 -44,24 -18,6 -41,9 -69,9 -53,0 -90,-9 -113,-27 -22,-18 -33,-41 -33,-69 0,-3 0,-6 0,-10zm74 -182c0,33 6,57 19,73 13,15 29,23 47,23 20,0 37,-8 51,-24 14,-16 21,-39 21,-70 0,-32 -7,-56 -20,-72 -13,-16 -30,-23 -50,-23 -20,0 -36,8 -49,23 -13,15 -19,39 -19,70z"/>
  <path id="3" class="fil5" d="M20605 12839l77 0 0 46c10,-16 23,-28 40,-38 17,-10 36,-14 57,-14 36,0 67,14 92,43 25,28 38,68 38,119 0,52 -13,93 -38,122 -25,29 -56,43 -93,43 -17,0 -33,-3 -47,-10 -14,-7 -29,-19 -44,-35l0 156 -82 0 0 -430zm81 151c0,35 7,61 21,78 14,17 31,25 51,25 19,0 35,-8 48,-23 13,-15 19,-41 19,-76 0,-33 -7,-57 -20,-73 -13,-16 -29,-24 -49,-24 -20,0 -37,8 -50,23 -13,16 -20,39 -20,69z"/>
  <path id="4" class="fil5" d="M21181 13151l0 -47c-11,17 -26,30 -45,40 -19,10 -38,15 -59,15 -21,0 -40,-5 -57,-14 -17,-9 -29,-22 -36,-39 -8,-17 -11,-40 -11,-69l0 -198 82 0 0 144c0,44 2,71 5,81 3,10 9,18 17,24 8,6 18,9 31,9 14,0 27,-4 38,-12 11,-8 19,-17 23,-29 4,-12 6,-40 6,-84l0 -132 82 0 0 312 -76 0z"/>
  <path id="5" class="fil5" d="M21421 13151l-82 0 0 -312 76 0 0 44c13,-21 25,-35 35,-41 11,-7 22,-10 36,-10 19,0 37,5 54,16l-26 72c-14,-9 -27,-14 -39,-14 -12,0 -21,3 -29,10 -8,6 -14,18 -19,34 -5,17 -7,52 -7,105l0 96z"/>
  <g id="_343815280">
   <ellipse class="fil3 str0" cx="14608" cy="11918" rx="185" ry="165"/>
   <ellipse class="fil1 str0" cx="14608" cy="11918" rx="110" ry="98"/>
   <polyline class="fil3 str1" points="14608,12083 14608,13002 18555,13002 "/>
  </g>
  <polygon class="fil1 str0" points="20177,11341 20070,11469 20035,11634 20070,11698 20030,11753 20058,11861 20081,11973 20098,12218 20149,12167 20148,11396 "/>
  <rect class="fil4" x="19349" y="11268" width="5232" height="695" rx="347" ry="347"/>
  <polygon class="fil5" points="19681,11828 19681,11397 19812,11397 19889,11691 19965,11397 20096,11397 20096,11828 20015,11828 20015,11489 19930,11828 19846,11828 19762,11489 19762,11828 "/>
  <path id="1" class="fil5" d="M20244 11612l-75 -13c8,-30 23,-53 43,-68 21,-15 51,-22 92,-22 37,0 64,4 82,13 18,9 31,20 38,33 7,13 11,38 11,74l-1 96c0,27 1,48 4,61 3,13 8,27 15,42l-82 0c-2,-5 -5,-13 -8,-24 -1,-5 -2,-8 -3,-10 -14,14 -29,24 -45,31 -16,7 -33,10 -51,10 -32,0 -57,-9 -76,-26 -18,-17 -28,-39 -28,-66 0,-18 4,-33 13,-47 8,-14 20,-24 35,-32 15,-7 37,-14 66,-19 38,-7 65,-14 80,-20l0 -8c0,-16 -4,-27 -12,-34 -8,-7 -23,-10 -44,-10 -15,0 -26,3 -34,9 -8,6 -15,16 -20,31zm111 67c-11,4 -27,8 -50,13 -23,5 -38,10 -45,14 -11,8 -16,17 -16,29 0,12 4,22 13,30 9,8 20,13 33,13 15,0 29,-5 43,-15 10,-8 17,-17 20,-27 2,-7 3,-20 3,-40l0 -16z"/>
  <path id="2" class="fil5" d="M20803 11828l-76 0 0 -46c-13,18 -28,31 -45,40 -17,9 -35,13 -53,13 -36,0 -67,-14 -92,-43 -26,-29 -38,-69 -38,-121 0,-53 12,-93 37,-121 25,-28 56,-41 94,-41 35,0 65,15 91,43l0 -155 82 0 0 430zm-220 -162c0,33 5,58 14,72 13,22 32,32 56,32 19,0 35,-8 48,-24 13,-16 20,-40 20,-73 0,-36 -6,-62 -19,-78 -13,-16 -29,-24 -50,-24 -20,0 -36,8 -49,23 -13,16 -20,39 -20,70z"/>
  <path id="3" class="fil5" d="M20965 11397l0 160c27,-32 59,-48 96,-48 19,0 36,4 52,11 15,7 27,16 35,27 8,11 13,23 16,36 3,13 4,34 4,62l0 183 -82 0 0 -165c0,-33 -2,-53 -5,-62 -3,-9 -9,-16 -17,-21 -8,-5 -18,-8 -30,-8 -14,0 -26,3 -37,10 -11,7 -19,17 -24,30 -5,13 -8,33 -8,59l0 156 -82 0 0 -430 82 0z"/>
  <path id="4" class="fil5" d="M21211 11516l88 0 75 221 73 -221 85 0 -110 300 -20 54c-7,18 -14,32 -21,42 -7,10 -14,17 -23,23 -9,6 -19,11 -32,14 -12,3 -27,5 -42,5 -16,0 -31,-2 -47,-5l-7 -64c13,3 25,4 35,4 19,0 33,-6 43,-17 9,-11 16,-26 21,-43l-119 -313z"/>
  <path id="5" class="fil5" d="M21647 11612l-75 -13c8,-30 23,-53 43,-68 21,-15 51,-22 92,-22 37,0 64,4 82,13 18,9 31,20 38,33 7,13 11,38 11,74l-1 96c0,27 1,48 4,61 3,13 8,27 15,42l-82 0c-2,-5 -5,-13 -8,-24 -1,-5 -2,-8 -3,-10 -14,14 -29,24 -45,31 -16,7 -33,10 -51,10 -32,0 -57,-9 -76,-26 -18,-17 -28,-39 -28,-66 0,-18 4,-33 13,-47 8,-14 20,-24 35,-32 15,-7 37,-14 66,-19 38,-7 65,-14 80,-20l0 -8c0,-16 -4,-27 -12,-34 -8,-7 -23,-10 -44,-10 -15,0 -26,3 -34,9 -8,6 -15,16 -20,31zm111 67c-11,4 -27,8 -50,13 -23,5 -38,10 -45,14 -11,8 -16,17 -16,29 0,12 4,22 13,30 9,8 20,13 33,13 15,0 29,-5 43,-15 10,-8 17,-17 20,-27 2,-7 3,-20 3,-40l0 -16z"/>
  <path id="6" class="fil5" d="M22087 11828l0 -430 139 0c53,0 87,2 103,6 25,7 45,21 62,42 17,22 25,50 25,84 0,26 -5,49 -14,67 -10,18 -22,32 -36,42 -15,10 -30,17 -45,20 -21,4 -51,6 -90,6l-57 0 0 162 -87 0zm87 -358l0 123 47 0c34,0 57,-2 68,-7 12,-5 21,-12 27,-21 7,-10 10,-21 10,-34 0,-16 -5,-29 -14,-39 -9,-10 -21,-17 -35,-19 -10,-2 -31,-3 -62,-3l-42 0z"/>
  <path id="7" class="fil5" d="M22567 11828l-82 0 0 -312 76 0 0 44c13,-21 25,-35 35,-41 11,-7 22,-10 36,-10 19,0 37,5 54,16l-26 72c-14,-9 -27,-14 -39,-14 -12,0 -21,3 -29,10 -8,6 -14,18 -19,34 -5,17 -7,52 -7,105l0 96z"/>
  <path id="8" class="fil5" d="M22783 11612l-75 -13c8,-30 23,-53 43,-68 21,-15 51,-22 92,-22 37,0 64,4 82,13 18,9 31,20 38,33 7,13 11,38 11,74l-1 96c0,27 1,48 4,61 3,13 8,27 15,42l-82 0c-2,-5 -5,-13 -8,-24 -1,-5 -2,-8 -3,-10 -14,14 -29,24 -45,31 -16,7 -33,10 -51,10 -32,0 -57,-9 -76,-26 -18,-17 -28,-39 -28,-66 0,-18 4,-33 13,-47 8,-14 20,-24 35,-32 15,-7 37,-14 66,-19 38,-7 65,-14 80,-20l0 -8c0,-16 -4,-27 -12,-34 -8,-7 -23,-10 -44,-10 -15,0 -26,3 -34,9 -8,6 -15,16 -20,31zm111 67c-11,4 -27,8 -50,13 -23,5 -38,10 -45,14 -11,8 -16,17 -16,29 0,12 4,22 13,30 9,8 20,13 33,13 15,0 29,-5 43,-15 10,-8 17,-17 20,-27 2,-7 3,-20 3,-40l0 -16z"/>
  <path id="9" class="fil5" d="M23342 11828l-76 0 0 -46c-13,18 -28,31 -45,40 -17,9 -35,13 -53,13 -36,0 -67,-14 -92,-43 -26,-29 -38,-69 -38,-121 0,-53 12,-93 37,-121 25,-28 56,-41 94,-41 35,0 65,15 91,43l0 -155 82 0 0 430zm-220 -162c0,33 5,58 14,72 13,22 32,32 56,32 19,0 35,-8 48,-24 13,-16 20,-40 20,-73 0,-36 -6,-62 -19,-78 -13,-16 -29,-24 -50,-24 -20,0 -36,8 -49,23 -13,16 -20,39 -20,70z"/>
  <path id="10" class="fil5" d="M23604 11729l82 14c-11,30 -27,53 -50,69 -23,16 -51,24 -86,24 -54,0 -94,-18 -120,-53 -21,-28 -31,-64 -31,-108 0,-52 14,-92 40,-122 27,-29 61,-44 102,-44 46,0 83,15 110,46 27,31 40,78 38,141l-206 0c1,24 7,43 20,57 13,14 28,20 47,20 13,0 24,-4 32,-11 9,-7 15,-18 20,-34zm5 -84c-1,-24 -7,-42 -18,-55 -12,-13 -26,-19 -43,-19 -18,0 -33,7 -44,20 -12,13 -17,31 -17,54l123 0z"/>
  <path id="11" class="fil5" d="M23728 11740l83 -13c4,16 11,28 21,36 11,8 26,12 45,12 21,0 37,-4 48,-12 7,-6 11,-13 11,-22 0,-6 -2,-11 -6,-16 -4,-4 -13,-8 -28,-11 -67,-15 -109,-28 -127,-40 -25,-17 -37,-40 -37,-70 0,-27 11,-50 32,-68 21,-18 54,-28 99,-28 43,0 74,7 95,21 21,14 35,35 43,62l-78 14c-3,-12 -10,-22 -19,-28 -9,-7 -23,-10 -40,-10 -22,0 -37,3 -47,9 -6,4 -9,10 -9,17 0,6 3,11 8,15 8,6 33,13 77,23 44,10 75,22 92,37 17,15 26,35 26,61 0,29 -12,53 -36,74 -24,21 -59,31 -106,31 -42,0 -76,-9 -101,-26 -25,-17 -41,-40 -49,-70z"/>
  <path id="12" class="fil5" d="M24173 11397l0 160c27,-32 59,-48 96,-48 19,0 36,4 52,11 15,7 27,16 35,27 8,11 13,23 16,36 3,13 4,34 4,62l0 183 -82 0 0 -165c0,-33 -2,-53 -5,-62 -3,-9 -9,-16 -17,-21 -8,-5 -18,-8 -30,-8 -14,0 -26,3 -37,10 -11,7 -19,17 -24,30 -5,13 -8,33 -8,59l0 156 -82 0 0 -430 82 0z"/>
  <g id="_343774480">
   <ellipse class="fil3 str0" cx="15111" cy="10595" rx="185" ry="165"/>
   <ellipse class="fil1 str0" cx="15111" cy="10595" rx="110" ry="98"/>
   <polyline class="fil3 str1" points="15111,10760 15111,11679 19349,11679 "/>
  </g>
 </g>
</svg>
