<?xml version="1.0" encoding="utf-8"?>
<!-- Generator: Adobe Illustrator 23.0.5, SVG Export Plug-In . SVG Version: 6.00 Build 0)  -->
<svg version="1.1" id="Layer_1" xmlns="http://www.w3.org/2000/svg" xmlns:xlink="http://www.w3.org/1999/xlink" x="0px" y="0px"
	 viewBox="0 0 1011.1 1012.8" style="enable-background:new 0 0 1011.1 1012.8;" xml:space="preserve">
<style type="text/css">
	.st0{fill:#F7DE2B;}
	.st1{fill:#21A0DB;}
	.st2{font-family:'Arial-BoldMT';}
	.st3{font-size:36px;}
	.st4{fill:none;stroke:#000000;stroke-width:0.5;stroke-miterlimit:2.6131;}
	.st5{font-family:'ArialMT';}
	.st6{font-size:23px;}
	.st7{font-size:21px;}
	.st8{fill:#B2E0F9;}
</style>
<rect x="461.9" y="-149" class="st0" width="376.9" height="42.9"/>
<g>
	<text transform="matrix(1 0 0 1 403.2239 63.3384)" class="st1 st2 st3">Service Head</text>
</g>
<g>
	<line class="st4" x1="120.1" y1="86.4" x2="902.5" y2="86.4"/>
	<line class="st4" x1="511.3" y1="86.4" x2="511.3" y2="191"/>
	<line class="st4" x1="120.3" y1="86.4" x2="120.3" y2="191"/>
	<line class="st4" x1="902.3" y1="86.3" x2="902.3" y2="190.9"/>
</g>
<g>
	<text transform="matrix(1 0 0 1 31.0331 221.2148)" class="st5 st6">Service Manager </text>
</g>
<g>
	<text transform="matrix(1 0 0 1 67.4533 249.1864)" class="st5 st6">Jalandhar </text>
</g>
<g>
	<text transform="matrix(1 0 0 1 28.4787 277.1586)" class="st5 st6">(Company Owned</text>
	<text transform="matrix(1 0 0 1 16.9787 304.7587)" class="st5 st6">Company Operated)</text>
</g>
<g>
	<text transform="matrix(1 0 0 1 806.9355 221.2148)" class="st5 st6">Service Manager</text>
</g>
<g>
	<text transform="matrix(1 0 0 1 863.9726 249.1864)" class="st5 st6">Patna</text>
</g>
<g>
	<text transform="matrix(1 0 0 1 797.9902 277.1586)" class="st5 st6"> (Company Owned</text>
	<text transform="matrix(1 0 0 1 789.6902 304.7587)" class="st5 st6">Company Operated)</text>
</g>
<g>
	<text transform="matrix(1 0 0 1 421.1521 221.2148)" class="st5 st6">Service Manager </text>
</g>
<g>
	<text transform="matrix(1 0 0 1 481.8753 249.1864)" class="st5 st6">Delhi </text>
</g>
<g>
	<text transform="matrix(1 0 0 1 418.5982 277.1586)" class="st5 st6">(Company Owned</text>
	<text transform="matrix(1 0 0 1 407.0982 304.7587)" class="st5 st6">Company Operated)</text>
</g>
<g>
	<line class="st4" x1="213.4" y1="458.5" x2="809.2" y2="458.5"/>
	<line class="st4" x1="511.7" y1="458.5" x2="511.7" y2="533"/>
	<line class="st4" x1="213.5" y1="458.5" x2="213.5" y2="533"/>
	<line class="st4" x1="809" y1="458.4" x2="809" y2="532.9"/>
</g>
<g>
	<g>
		<text transform="matrix(1 0 0 1 170.2519 564.9651)" class="st5 st7">Srinagar </text>
	</g>
	<g>
		<text transform="matrix(1 0 0 1 170.2519 592.9378)" class="st5 st7">Jammu</text>
	</g>
	<g>
		<text transform="matrix(1 0 0 1 170.2519 620.9095)" class="st5 st7">Shimla</text>
	</g>
	<g>
		<text transform="matrix(1 0 0 1 170.2519 648.8813)" class="st5 st7">Rudrapur </text>
	</g>
	<g>
		<text transform="matrix(1 0 0 1 170.2519 676.8528)" class="st5 st7">Dehradun</text>
	</g>
	<g>
		<text transform="matrix(1 0 0 1 170.2519 704.8246)" class="st5 st7">Amritsar</text>
	</g>
	<g>
		<text transform="matrix(1 0 0 1 170.2519 732.7962)" class="st5 st7">Ludhiana</text>
	</g>
	<g>
		<text transform="matrix(1 0 0 1 170.2519 760.7679)" class="st5 st7">Jalndhar</text>
	</g>
	<g>
		<text transform="matrix(1 0 0 1 170.2519 788.7397)" class="st5 st7">Chandigarh</text>
	</g>
	<g>
		<text transform="matrix(1 0 0 1 170.2519 816.7112)" class="st5 st7"> Zirakhpur</text>
	</g>
	<g>
		<text transform="matrix(1 0 0 1 170.2519 844.683)" class="st5 st7">Krukshetra</text>
	</g>
	<g>
		<text transform="matrix(1 0 0 1 170.2519 872.6546)" class="st5 st7">Karnal </text>
	</g>
	<g>
		<text transform="matrix(1 0 0 1 170.2519 900.6263)" class="st5 st7">Rohtak </text>
	</g>
	<g>
		<text transform="matrix(1 0 0 1 170.2519 929.308)" class="st5 st7">Hisar </text>
	</g>
	<g>
		<text transform="matrix(1 0 0 1 170.2519 957.2796)" class="st5 st7">Sirsa</text>
	</g>
</g>
<g>
	<g>
		<text transform="matrix(1 0 0 1 468.9818 564.9651)" class="st5 st7">Gurugram</text>
	</g>
	<g>
		<text transform="matrix(1 0 0 1 468.9818 592.9378)" class="st5 st7">Bhiwani</text>
	</g>
	<g>
		<text transform="matrix(1 0 0 1 468.9818 620.9095)" class="st5 st7">Jaipur</text>
	</g>
	<g>
		<text transform="matrix(1 0 0 1 468.9818 648.8813)" class="st5 st7">Alwar</text>
	</g>
	<g>
		<text transform="matrix(1 0 0 1 468.9818 676.8528)" class="st5 st7">Udaipur</text>
	</g>
	<g>
		<text transform="matrix(1 0 0 1 468.9818 704.8246)" class="st5 st7">Baroda</text>
	</g>
	<g>
		<text transform="matrix(1 0 0 1 468.9818 732.7962)" class="st5 st7">Aligarh</text>
	</g>
	<g>
		<text transform="matrix(1 0 0 1 468.9818 760.7679)" class="st5 st7">Lucknow</text>
	</g>
	<g>
		<text transform="matrix(1 0 0 1 468.9818 788.7397)" class="st5 st7">Kanpur</text>
	</g>
	<g>
		<text transform="matrix(1 0 0 1 468.9818 816.7112)" class="st5 st7">Gorakhpur</text>
	</g>
	<g>
		<text transform="matrix(1 0 0 1 468.9818 844.683)" class="st5 st7">Varanasi</text>
	</g>
	<g>
		<text transform="matrix(1 0 0 1 468.9818 872.6546)" class="st5 st7">Azamgarh</text>
	</g>
	<g>
		<text transform="matrix(1 0 0 1 468.9818 900.6263)" class="st5 st7">Agra</text>
	</g>
	<g>
		<text transform="matrix(1 0 0 1 468.9818 929.308)" class="st5 st7">Gaya</text>
	</g>
	<g>
		<text transform="matrix(1 0 0 1 468.9818 957.2796)" class="st5 st7">Patna</text>
	</g>
</g>
<rect x="-132.5" y="-200.9" class="st0" width="412" height="51.9"/>
<g>
	<g>
		<text transform="matrix(1 0 0 1 769.8559 564.8138)" class="st5 st7">Bhopal</text>
	</g>
	<g>
		<text transform="matrix(1 0 0 1 769.8559 592.7856)" class="st5 st7">Raipur</text>
	</g>
	<g>
		<text transform="matrix(1 0 0 1 769.8559 620.7581)" class="st5 st7">Indore</text>
	</g>
	<g>
		<text transform="matrix(1 0 0 1 769.8559 648.7299)" class="st5 st7">Ujjain</text>
	</g>
	<g>
		<text transform="matrix(1 0 0 1 769.8559 676.7015)" class="st5 st7">Bhubaneshwar</text>
	</g>
	<g>
		<text transform="matrix(1 0 0 1 769.8559 704.6732)" class="st5 st7">Hydrabad</text>
	</g>
	<g>
		<text transform="matrix(1 0 0 1 769.8559 732.6458)" class="st5 st7">Mumbai</text>
	</g>
	<g>
		<text transform="matrix(1 0 0 1 769.8559 760.6176)" class="st5 st7">Nagpur</text>
	</g>
	<g>
		<text transform="matrix(1 0 0 1 769.8559 788.5894)" class="st5 st7">Pune</text>
	</g>
	<g>
		<text transform="matrix(1 0 0 1 769.8559 816.562)" class="st5 st7">Kolkatta</text>
	</g>
	<g>
		<text transform="matrix(1 0 0 1 769.8559 844.5335)" class="st5 st7">Asansol</text>
	</g>
	<g>
		<text transform="matrix(1 0 0 1 769.8559 872.5052)" class="st5 st7">Darjeeling</text>
	</g>
	<g>
		<text transform="matrix(1 0 0 1 769.8559 900.4778)" class="st5 st7">Goa</text>
	</g>
</g>
<text transform="matrix(1 0 0 1 -91.7966 -161.3051)" class="st2 st3" style="fill:#FFFFFF;">Our Service Network</text>
<rect x="313.4" y="-100.5" class="st8" width="337" height="40.6"/>
<path class="st8" d="M662.8,401h-303c-9.9,0-18,8-18,18l0,0c0,9.9,8,18,18,18h303.1c9.9,0,18-8,18-18l0,0
	C680.8,409,672.8,401,662.8,401z"/>
<g>
	<text transform="matrix(1 0 0 1 347.0317 426.9445)" class="st5 st6">Our Service Franchise Location </text>
</g>
</svg>
